<svg version="1.1" xmlns="http://www.w3.org/2000/svg" viewBox="0 0 897.12890625 530.576171875" width="1794.2578125" height="1061.15234375">
  <!-- svg-source:excalidraw -->
  
  <defs>
    <style class="style-fonts">
      @font-face {
        font-family: "Virgil";
        src: url("https://excalidraw.com/Virgil.woff2");
      }
      @font-face {
        font-family: "Cascadia";
        src: url("https://excalidraw.com/Cascadia.woff2");
      }
    </style>
  </defs>
  <rect x="0" y="0" width="897.12890625" height="530.576171875" fill="#ffffff"></rect><g stroke-linecap="round" transform="translate(512.27734375 166.875) rotate(0 70.04296875 70.04296875)"><path d="M15.95 24.46 C15.95 24.46, 15.95 24.46, 15.95 24.46 M15.95 24.46 C15.95 24.46, 15.95 24.46, 15.95 24.46 M11.37 37.41 C15.76 28.24, 24.99 20.62, 31.6 12.05 M9.59 36.89 C15.85 29.12, 24.42 22.29, 31.93 12.86 M2.63 50.57 C17.91 33.51, 33 14.49, 42.95 4.82 M3.49 49.91 C14.09 38.25, 25.27 27.36, 41.66 6.39 M5.52 54.71 C23.53 36.89, 38.45 14.63, 48.16 3.64 M4.96 54.74 C18.1 40.03, 31.39 24.89, 48.75 5.12 M6.65 62.12 C15.01 45.03, 29 32.56, 55.59 3.36 M4.28 60.79 C18.44 47.57, 31.8 31.71, 55.34 4.32 M4 67.37 C17.15 53.89, 28.43 41.79, 62.97 1.46 M5.35 67.36 C17.19 52.6, 29.94 37.69, 60.56 2.18 M4.82 75.36 C20.56 56.72, 35.87 37.09, 68.99 1.78 M4.01 73.43 C24.01 50.8, 42.94 27.96, 66.58 1.15 M0.78 82.39 C21.94 57.09, 43.8 32.87, 72.52 -0.49 M1.54 84.23 C17.2 66.45, 32.33 48.22, 74.11 0.58 M4.15 86.03 C21.93 69.39, 39.58 48.66, 76.9 0.68 M3.23 86.85 C21.27 68.21, 37.06 48.05, 77.15 1.8 M5.92 90.29 C25.89 67.72, 49.36 41.02, 83.76 4.19 M4.84 90.93 C22.34 71.32, 39.79 53.23, 81.08 3.79 M7.95 94.99 C29.43 71.31, 52.5 45.49, 85.41 5.77 M7.2 95.74 C24.05 75.6, 42.77 54.52, 85.55 4.81 M10.12 101.32 C27.9 79.39, 49.32 54.33, 89.93 4.76 M7.65 99.32 C24.88 78.6, 43.88 58.25, 89.85 6.72 M10.09 104.05 C43.96 66.68, 76.22 27.92, 92.95 8.35 M10.2 104.31 C37.8 71.62, 67.34 38.83, 95.09 6.93 M11.03 107.81 C43.56 74.13, 75.61 37.34, 97.35 7.85 M11.7 107.89 C30.52 87.48, 48.47 65.9, 98.32 8.21 M14.05 110.59 C33.53 91.6, 52.92 67.29, 105.7 10.14 M14.55 110.88 C32.44 89.78, 51.08 67.96, 103.27 7.85 M16.63 113.46 C41.98 86.91, 68.55 59.33, 108.07 10.48 M17.56 115.1 C36.37 93.74, 53.89 72.13, 106.58 10.05 M20.35 116.86 C46.03 84.54, 75.66 55.06, 108.96 12.48 M20.04 117.26 C51.14 84.08, 80.22 48.46, 109.12 13.49 M23.99 119.34 C50.37 86.75, 81.94 51.36, 111.19 16.82 M23.28 119.32 C44.28 96.24, 65.52 73.36, 112.19 17.74 M26.59 122.53 C53.44 94.23, 76.8 65.26, 113.59 19.81 M25.99 123.16 C60.61 82.73, 93.6 43.74, 115.68 19.39 M31.22 123.43 C60.71 91.49, 90.2 52.13, 117.44 22.61 M28.41 124.38 C61.38 90.37, 90.55 53.64, 118.79 22.91 M32.72 126.62 C54.49 99.58, 80.05 75.41, 121.56 24.22 M32.49 128.26 C57.28 99.67, 83.21 70.9, 121.55 25.3 M33.46 128.54 C53.6 106.57, 74.19 85.21, 126 25.74 M35.96 129.55 C54.48 108.42, 72.86 88.1, 124.89 27.92 M39.07 133.75 C55.59 112.01, 74.35 91.55, 127.89 30.64 M38.48 132.4 C68.82 97.72, 99.8 60.81, 126.8 30.42 M43.54 133.64 C71.43 101.56, 98.81 69.67, 127.76 34.49 M43.06 134.74 C72.04 102.56, 98.38 70.57, 129.14 34.07 M48.97 135.2 C68.21 112.48, 83.79 90.27, 129.34 36.69 M46.29 134.61 C74.11 102.41, 101.66 70.7, 131.69 39.15 M53.34 136.79 C76.35 105.96, 105.71 73.1, 131.94 40.5 M52.34 135.6 C82.19 99.6, 113.58 64.93, 133 42.58 M56.87 137.85 C76.3 115.17, 92.63 94.9, 136.96 46.8 M55.84 138.13 C73.03 118.8, 88.65 99.14, 135.21 45.29 M61.81 139.21 C86.13 108.86, 114.79 73.51, 135.5 49.79 M59.95 137.45 C85.08 110.94, 108.46 82.99, 136.08 49.6 M64.21 139.25 C86.05 115.37, 108.62 91.89, 137.57 52.3 M64.49 139.38 C90.08 111.03, 114.91 81.62, 138.54 54.1 M69.6 142.23 C86.56 120.03, 104.4 99.1, 140.42 57.24 M68.13 140.3 C87.93 117.53, 105.5 96.08, 139.43 58.75 M74.14 141 C95.57 115.72, 114.07 93.78, 138.38 66.16 M73.72 139.44 C96.87 113.68, 121.26 85.89, 139.69 65.04 M81 137.03 C99.29 119.02, 117.66 97.93, 139.81 73.41 M81.24 138.57 C93.51 125.91, 103.81 112.51, 139.7 71.83 M86.16 138.38 C98.73 123.87, 110.88 109.14, 139.62 78.22 M87.81 137.59 C101.78 121.96, 115.56 106.62, 138.15 78.99 M94.12 135.97 C107.25 119.29, 121.99 105.97, 137 83.15 M91.88 138.41 C107.19 122.18, 121.04 105.88, 138.18 85.53 M99.59 137.56 C106.68 127.28, 117.13 114.39, 139.8 89.13 M99.27 136.58 C113.21 122.33, 126.23 107.29, 140.11 88.23 M113.86 124.43 C121.59 115.65, 128.62 111.13, 132.52 101.77 M115.9 123.58 C122.13 116.44, 127.96 109.06, 131.81 103.57" stroke="#fa5252" stroke-width="0.5" fill="none"></path><path d="M41.39 5.01 C49.65 0, 61.72 -0.68, 72.05 -0.15 C82.38 0.38, 94.26 3.3, 103.37 8.2 C112.49 13.1, 120.72 20.99, 126.75 29.24 C132.77 37.48, 137.71 48.06, 139.52 57.69 C141.32 67.32, 140.25 77.48, 137.56 87.02 C134.88 96.56, 130.04 106.94, 123.41 114.91 C116.79 122.88, 107.26 130.73, 97.83 134.85 C88.41 138.96, 76.76 140.02, 66.87 139.6 C56.97 139.18, 47.46 137.06, 38.49 132.31 C29.52 127.57, 19.18 119.31, 13.04 111.12 C6.89 102.93, 3.33 92.99, 1.64 83.19 C-0.04 73.39, 0.51 62.16, 2.93 52.33 C5.34 42.51, 9.49 32.17, 16.15 24.24 C22.81 16.31, 37.74 7.95, 42.89 4.75 C48.04 1.56, 46.56 3.78, 47.05 5.08 M74.08 -1.23 C83.37 -1.21, 95.41 5.53, 104.16 10.75 C112.9 15.97, 120.63 21.99, 126.52 30.08 C132.42 38.17, 137.97 49.36, 139.55 59.31 C141.12 69.27, 138.9 80.14, 135.96 89.81 C133.02 99.49, 128.51 109.53, 121.91 117.35 C115.31 125.17, 105.66 133.07, 96.36 136.73 C87.06 140.39, 76.12 140.25, 66.12 139.31 C56.11 138.38, 45.21 136.26, 36.33 131.12 C27.46 125.98, 18.64 116.82, 12.87 108.48 C7.09 100.13, 3.41 90.88, 1.69 81.05 C-0.03 71.22, -0.19 59.39, 2.54 49.5 C5.26 39.62, 10.91 29.13, 18.05 21.74 C25.19 14.35, 35.99 8.95, 45.4 5.17 C54.8 1.39, 69.61 -0.16, 74.48 -0.94 C79.35 -1.73, 74.6 -0.89, 74.61 0.46" stroke="#000000" stroke-width="1" fill="none"></path></g><g transform="translate(537.8424726329845 224.39011057243755) rotate(0 44.449981689453125 12.5)"><text x="44.449981689453125" y="0" font-family="Virgil, Segoe UI Emoji" font-size="20px" fill="#000000" text-anchor="middle" style="white-space: pre;" direction="ltr" dominant-baseline="text-before-edge">AIRMAIL</text></g><g stroke-linecap="round"><g transform="translate(129.43674938410663 184.99009379354504) rotate(0 190.46715188002003 27.18781120137541)"><path d="M-0.87 0.68 C62.89 9.89, 318.19 45.68, 381.81 54.38 M0.87 -0.01 C64.57 8.94, 317.91 43.64, 381.06 52.61" stroke="#000000" stroke-width="1" fill="none"></path></g><g transform="translate(129.43674938410663 184.99009379354504) rotate(0 190.46715188002003 27.18781120137541)"><path d="M352.86 59.51 C359.81 56.6, 364.28 56.47, 382.9 53.5 M351.83 59.79 C358.47 57.94, 363.94 55.53, 381.15 51.99" stroke="#000000" stroke-width="1" fill="none"></path></g><g transform="translate(129.43674938410663 184.99009379354504) rotate(0 190.46715188002003 27.18781120137541)"><path d="M355.69 39.19 C361.82 41.07, 365.62 45.75, 382.9 53.5 M354.66 39.47 C360.62 41.75, 365.52 43.46, 381.15 51.99" stroke="#000000" stroke-width="1" fill="none"></path></g></g><mask></mask><g transform="translate(307.0234375 191.99609375) rotate(8.796124202810542 20.89598846435547 10)"><text x="0" y="0" font-family="Virgil, Segoe UI Emoji" font-size="16px" fill="#000000" text-anchor="start" style="white-space: pre;" direction="ltr" dominant-baseline="text-before-edge">JSON</text></g><g transform="translate(219.97265625 225.21484375) rotate(7.614632608370678 109.80792236328125 10)"><text x="0" y="0" font-family="Virgil, Segoe UI Emoji" font-size="16px" fill="#000000" text-anchor="start" style="white-space: pre;" direction="ltr" dominant-baseline="text-before-edge">X-WWW-FORM-URLENCODED</text></g><g stroke-linecap="round" transform="translate(514.58203125 367.47265625) rotate(0 69.37109375 16.791015625)"><path d="M2.23 1.94 C2.23 1.94, 2.23 1.94, 2.23 1.94 M2.23 1.94 C2.23 1.94, 2.23 1.94, 2.23 1.94 M1.32 9.1 C5.32 6.35, 8.49 2.05, 9.19 0.04 M1.32 9.1 C3.93 5.59, 7.88 1.97, 9.19 0.04 M1.06 15.49 C5.55 12.74, 7.71 8.48, 14.18 0.4 M1.06 15.49 C6.04 9.51, 9.47 5.06, 14.18 0.4 M1.45 21.14 C7.31 13.49, 16.26 7.55, 19.16 0.76 M1.45 21.14 C6.8 15.81, 12.55 8.51, 19.16 0.76 M1.84 26.78 C7.47 19.18, 11.36 13.83, 24.81 0.36 M1.84 26.78 C7.07 20, 11.99 15.64, 24.81 0.36 M3.55 30.91 C8.87 22.48, 17.7 16.78, 29.79 0.72 M3.55 30.91 C10.66 23.08, 16.78 14.96, 29.79 0.72 M5.91 34.29 C12.23 26.3, 18.72 20.75, 35.44 0.33 M5.91 34.29 C15.09 23.33, 23.08 13.59, 35.44 0.33 M11.56 33.9 C17.76 28.58, 25.01 20.82, 40.42 0.69 M11.56 33.9 C18.74 26.21, 26.84 17.09, 40.42 0.69 M16.54 34.26 C26.35 19.5, 41.14 10.11, 46.07 0.3 M16.54 34.26 C26.15 24.64, 33.03 14.38, 46.07 0.3 M21.53 34.62 C31.62 23.27, 39.85 11.26, 51.05 0.66 M21.53 34.62 C28.59 27.01, 35.89 18.76, 51.05 0.66 M27.17 34.22 C33.87 26.01, 43.57 14.93, 56.7 0.26 M27.17 34.22 C34.35 25.6, 39.7 19.07, 56.7 0.26 M32.16 34.58 C42.62 24.2, 52.37 10.05, 61.68 0.62 M32.16 34.58 C37.37 27.11, 44.94 20.96, 61.68 0.62 M37.8 34.19 C46.13 24.67, 51.62 19.3, 66.67 0.98 M37.8 34.19 C46.17 24.84, 53.13 17.58, 66.67 0.98 M42.79 34.55 C50.6 25.52, 63.29 15.05, 72.31 0.59 M42.79 34.55 C52.81 22.33, 64.93 11.1, 72.31 0.59 M48.43 34.15 C54.54 28.23, 59.12 18.84, 77.3 0.95 M48.43 34.15 C56.81 25.61, 64.32 17.37, 77.3 0.95 M53.42 34.51 C63.25 25.14, 72.53 12.64, 82.94 0.55 M53.42 34.51 C62.71 23.73, 74.51 10.33, 82.94 0.55 M59.06 34.12 C68.61 26.47, 74.73 16.73, 87.93 0.91 M59.06 34.12 C65.69 26.83, 71.54 20.15, 87.93 0.91 M64.05 34.48 C75.07 23.01, 86.25 7.94, 93.57 0.52 M64.05 34.48 C74.78 22.77, 85.51 10.6, 93.57 0.52 M69.69 34.08 C79.68 23.93, 86.84 13.97, 98.56 0.88 M69.69 34.08 C75.72 26.44, 82.06 18.48, 98.56 0.88 M74.68 34.44 C85.41 23.87, 97.02 10.22, 104.2 0.48 M74.68 34.44 C85.62 23.54, 94.39 12.03, 104.2 0.48 M79.67 34.8 C85.39 26.59, 93.72 17.45, 109.19 0.84 M79.67 34.8 C88.2 24.17, 97.46 13.2, 109.19 0.84 M85.31 34.41 C91.45 27.92, 100.4 18.27, 114.18 1.2 M85.31 34.41 C95.02 23.49, 104.05 14.33, 114.18 1.2 M90.3 34.77 C97.83 25.11, 106.68 18.59, 119.82 0.81 M90.3 34.77 C98.15 25.84, 104.21 19.36, 119.82 0.81 M95.94 34.38 C100.86 27.13, 108.31 19.95, 124.81 1.17 M95.94 34.38 C102.23 25.76, 109.18 18.86, 124.81 1.17 M100.93 34.74 C106.79 26.16, 111.01 22.28, 130.45 0.77 M100.93 34.74 C107.57 25.43, 115.56 18.02, 130.45 0.77 M106.57 34.34 C114.28 25.24, 122.62 18.92, 135.44 1.13 M106.57 34.34 C117.6 22.82, 126.06 10.48, 135.44 1.13 M111.56 34.7 C118.74 27.16, 126.76 16.56, 137.8 4.51 M111.56 34.7 C119.54 23.96, 128.29 16.21, 137.8 4.51 M117.2 34.31 C126.24 24.57, 133.07 15.76, 140.82 7.14 M117.2 34.31 C123.76 26.86, 130.37 19.87, 140.82 7.14 M122.19 34.67 C129.45 27, 135.28 20.75, 141.22 12.78 M122.19 34.67 C129.61 26.08, 135.72 18.89, 141.22 12.78 M127.18 35.03 C133.16 30.53, 136.34 24.92, 140.95 19.18 M127.18 35.03 C130.97 30.62, 135.16 25.17, 140.95 19.18 M134.13 33.12 C135.27 30.83, 137.33 28.51, 140.69 25.58 M134.13 33.12 C136.51 29.82, 139.39 27.67, 140.69 25.58 M4.53 32.89 C4.53 32.89, 4.53 32.89, 4.53 32.89 M4.53 32.89 C4.53 32.89, 4.53 32.89, 4.53 32.89 M10.93 33.15 C8.65 31.1, 5.63 28.26, 2.63 25.94 M10.93 33.15 C8.5 30.65, 5.65 28.55, 2.63 25.94 M17.33 33.42 C13.62 30.23, 10.55 27.01, 2.99 20.95 M17.33 33.42 C11.64 28.6, 7.33 23.36, 2.99 20.95 M22.97 33.02 C17.89 26.23, 7.43 19.62, 2.59 15.31 M22.97 33.02 C17.99 28.79, 10.97 24.06, 2.59 15.31 M29.37 33.28 C17.19 24.45, 7.39 13.23, 0.69 8.35 M29.37 33.28 C17.99 23.01, 6.11 13.63, 0.69 8.35 M35.01 32.89 C23.66 22.6, 14.35 16.06, 1.8 4.02 M35.01 32.89 C23.41 23.49, 11.24 13.23, 1.8 4.02 M41.41 33.15 C25 19.45, 10.28 8.14, 3.67 0.35 M41.41 33.15 C28.95 20.8, 15.04 9.18, 3.67 0.35 M47.81 33.41 C35.83 23.02, 28.64 16.96, 8.56 -0.7 M47.81 33.41 C36.15 24.74, 25.6 13.54, 8.56 -0.7 M53.45 33.02 C39.22 22.27, 29.76 11.21, 14.96 -0.44 M53.45 33.02 C39.47 21.75, 27.23 10.99, 14.96 -0.44 M59.85 33.28 C45.44 23.43, 33.6 11.44, 21.36 -0.18 M59.85 33.28 C49.56 23.97, 37.94 14.69, 21.36 -0.18 M66.25 33.54 C58.23 25.83, 50.59 18.65, 27 -0.58 M66.25 33.54 C51.11 20.66, 36.44 7.4, 27 -0.58 M71.89 33.14 C56.82 20.26, 41.09 7.4, 33.4 -0.32 M71.89 33.14 C61.58 25.17, 51.69 16.92, 33.4 -0.32 M78.29 33.41 C69.14 24.63, 58.63 13.04, 39.8 -0.05 M78.29 33.41 C69.28 25.93, 59.02 17.18, 39.8 -0.05 M84.68 33.67 C75.15 27.22, 66.7 20.54, 45.44 -0.45 M84.68 33.67 C74.61 24.61, 62.71 15.04, 45.44 -0.45 M90.33 33.27 C78.73 22.4, 66.81 15.64, 51.84 -0.19 M90.33 33.27 C76.98 22.36, 63.78 10.17, 51.84 -0.19 M96.73 33.53 C83.89 25.11, 74.16 14.4, 57.48 -0.58 M96.73 33.53 C84.2 22.1, 73.49 12.4, 57.48 -0.58 M102.37 33.14 C93.36 26.76, 85.31 18.06, 63.88 -0.32 M102.37 33.14 C91.47 22.54, 78.87 12.51, 63.88 -0.32 M108.77 33.4 C102.15 27.6, 94.24 20.67, 70.28 -0.06 M108.77 33.4 C100.77 26.71, 92.23 18.07, 70.28 -0.06 M115.16 33.66 C100.32 20.38, 86.17 9.86, 75.92 -0.45 M115.16 33.66 C99.71 21.31, 85.9 8.02, 75.92 -0.45 M120.81 33.27 C107.51 23.72, 93.46 11.74, 82.32 -0.19 M120.81 33.27 C112.46 25.04, 102 17.5, 82.32 -0.19 M127.21 33.53 C114.61 20.66, 101.74 11.67, 88.72 0.07 M127.21 33.53 C111.93 20.68, 95.41 6.8, 88.72 0.07 M131.34 31.82 C119.98 22.67, 113.42 16.47, 94.36 -0.32 M131.34 31.82 C121.68 22, 110.11 12.86, 94.36 -0.32 M136.23 30.77 C121.79 17.27, 108.3 5.8, 100.76 -0.06 M136.23 30.77 C124.78 20.59, 115.02 12.23, 100.76 -0.06 M138.85 27.75 C128.48 18.57, 118.88 10.84, 107.15 0.2 M138.85 27.75 C126.26 16.75, 113.49 5.24, 107.15 0.2 M139.21 22.77 C127.56 14.06, 119.85 3.96, 112.8 -0.2 M139.21 22.77 C130.16 15.08, 120.94 6.52, 112.8 -0.2 M138.82 17.12 C133.78 13.23, 128.66 9.84, 119.19 0.07 M138.82 17.12 C131.43 10.96, 125.47 6.09, 119.19 0.07 M139.18 12.14 C136.5 7.21, 132.11 5.52, 125.59 0.33 M139.18 12.14 C135.41 8.93, 131.18 5.12, 125.59 0.33 M138.78 6.49 C136.97 4.11, 132.8 2.84, 131.24 -0.07 M138.78 6.49 C135.88 4.15, 132.4 0.89, 131.24 -0.07" stroke="#228be6" stroke-width="0.5" fill="none"></path><path d="M8.4 0 M8.4 0 C40.79 -1.43, 71.59 -2.62, 130.35 0 M8.4 0 C37.84 0.19, 65.2 1.04, 130.35 0 M130.35 0 C136.64 -1.86, 137.07 2.12, 138.74 8.4 M130.35 0 C134.87 0, 139.51 4.09, 138.74 8.4 M138.74 8.4 C139.03 14.71, 140.25 20.83, 138.74 25.19 M138.74 8.4 C138.67 14.89, 139.06 20.73, 138.74 25.19 M138.74 25.19 C136.91 29.85, 137.81 33.61, 130.35 33.58 M138.74 25.19 C139.77 31.54, 135.09 31.92, 130.35 33.58 M130.35 33.58 C86.89 31.54, 46.4 34.22, 8.4 33.58 M130.35 33.58 C84.48 32.75, 37.93 32.37, 8.4 33.58 M8.4 33.58 C2.09 35.08, 0.12 32.58, 0 25.19 M8.4 33.58 C1.56 32.63, 0.8 32.03, 0 25.19 M0 25.19 C1.45 22.82, -1.4 18.51, 0 8.4 M0 25.19 C0.63 17.84, 0.78 12.09, 0 8.4 M0 8.4 C0.32 4.37, 1.95 -1.15, 8.4 0 M0 8.4 C-0.86 4.6, 4.38 0.36, 8.4 0" stroke="#000000" stroke-width="1" fill="none"></path></g><g transform="translate(556.0331344604492 374.263671875) rotate(0 27.91999053955078 10)"><text x="27.91999053955078" y="0" font-family="Virgil, Segoe UI Emoji" font-size="16px" fill="#000000" text-anchor="middle" style="white-space: pre;" direction="ltr" dominant-baseline="text-before-edge">STORE</text></g><g stroke-linecap="round"><g transform="translate(585.2172796349275 310.2971459994544) rotate(0 -0.07214759968593398 25.65165761213356)"><path d="M0.44 -0.02 C0.23 8.68, -0.26 42.78, -0.58 51.32" stroke="#000000" stroke-width="1.5" fill="none" stroke-dasharray="8 9"></path></g><g transform="translate(585.2172796349275 310.2971459994544) rotate(0 -0.07214759968593398 25.65165761213356)"><path d="M-8.69 28.92 C-4.9 35.88, -2.16 45.14, -1.77 53.01" stroke="#000000" stroke-width="1.5" fill="none"></path></g><g transform="translate(585.2172796349275 310.2971459994544) rotate(0 -0.07214759968593398 25.65165761213356)"><path d="M8.64 29.34 C6.27 36.22, 2.84 45.32, -1.77 53.01" stroke="#000000" stroke-width="1.5" fill="none"></path></g></g><mask></mask><g stroke-linecap="round" transform="translate(755.12890625 202.8359375) rotate(0 66 15)"><path d="M2 1.74 C2 1.74, 2 1.74, 2 1.74 M2 1.74 C2 1.74, 2 1.74, 2 1.74 M1.08 8.89 C2.25 6.08, 5.76 4.9, 8.3 0.59 M1.08 8.89 C4.07 6.08, 7.02 2.56, 8.3 0.59 M1.47 14.53 C5.02 11.89, 6.45 8.89, 13.28 0.95 M1.47 14.53 C4.96 10.47, 8.35 7.8, 13.28 0.95 M1.87 20.17 C5.09 14.61, 10.08 8.67, 18.93 0.55 M1.87 20.17 C6.12 15.63, 9.58 12.38, 18.93 0.55 M1.61 26.57 C9.76 17.83, 16.7 9, 23.91 0.91 M1.61 26.57 C8.54 17.46, 15.04 9.12, 23.91 0.91 M3.97 29.95 C13.24 21.74, 19.24 11.78, 29.56 0.52 M3.97 29.95 C10.53 22.87, 16.8 15.62, 29.56 0.52 M9.61 29.56 C14.54 24.73, 22.92 16.49, 34.54 0.88 M9.61 29.56 C18.38 20.53, 27.25 10.37, 34.54 0.88 M14.6 29.92 C24.09 20.07, 32.16 9.07, 40.19 0.48 M14.6 29.92 C22.5 21.09, 29.86 11.15, 40.19 0.48 M20.24 29.52 C27.98 20.98, 35.39 13.25, 45.17 0.84 M20.24 29.52 C24.67 23.47, 31.73 16.65, 45.17 0.84 M25.23 29.88 C29.52 22.44, 36.54 14.62, 50.82 0.45 M25.23 29.88 C32.48 21.58, 39.3 14.17, 50.82 0.45 M30.87 29.49 C37.22 24.14, 39.4 16.9, 55.8 0.81 M30.87 29.49 C38.95 18.18, 49.41 8.35, 55.8 0.81 M35.86 29.85 C41.07 21.05, 47.07 13.44, 60.79 1.17 M35.86 29.85 C41.17 23.69, 46.07 16.86, 60.79 1.17 M41.5 29.45 C48.58 21.11, 57.9 9.15, 66.43 0.77 M41.5 29.45 C48.44 20.69, 56.09 12.19, 66.43 0.77 M46.49 29.81 C52.92 20.53, 58.86 14.78, 71.42 1.13 M46.49 29.81 C56.54 19.3, 65.7 8.07, 71.42 1.13 M52.13 29.42 C58.58 19.44, 67.65 11.84, 77.06 0.74 M52.13 29.42 C59.58 22.3, 64.68 13.56, 77.06 0.74 M57.12 29.78 C66 20.46, 73.91 10, 82.05 1.1 M57.12 29.78 C66.07 20.78, 73.76 11.29, 82.05 1.1 M62.11 30.14 C71.22 20.72, 79.59 11.93, 87.69 0.7 M62.11 30.14 C67.73 22.85, 74.17 16.27, 87.69 0.7 M67.75 29.74 C71.7 25.15, 79.37 17.34, 92.68 1.06 M67.75 29.74 C76.62 20.1, 85.3 10.77, 92.68 1.06 M72.74 30.1 C77.58 20.44, 85.63 13.27, 98.32 0.67 M72.74 30.1 C80.64 21.41, 88.48 12.45, 98.32 0.67 M78.38 29.71 C87.65 18.44, 95.13 9.88, 103.31 1.03 M78.38 29.71 C86.77 18.17, 98.07 7.77, 103.31 1.03 M83.37 30.07 C90.41 21.24, 100.4 9.12, 108.3 1.39 M83.37 30.07 C90.49 23.55, 95.09 14.65, 108.3 1.39 M89.01 29.67 C96.51 20.3, 105.72 12.32, 113.94 1 M89.01 29.67 C99.23 19.14, 107.95 7.12, 113.94 1 M94 30.03 C98.37 23.91, 108.24 14.58, 118.93 1.36 M94 30.03 C99.92 24.24, 104.45 18.99, 118.93 1.36 M99.64 29.64 C107.79 23.73, 112.95 13.72, 124.57 0.96 M99.64 29.64 C108.67 18.62, 119.69 7.7, 124.57 0.96 M104.63 30 C111.67 22.54, 120.81 14.2, 128.9 2.08 M104.63 30 C110.38 23.54, 115.01 17.94, 128.9 2.08 M109.61 30.36 C115.53 21.16, 125.87 12.12, 131.92 4.7 M109.61 30.36 C116.92 21.22, 124.36 12.74, 131.92 4.7 M115.26 29.97 C120.43 23.65, 129.38 15.15, 132.31 10.34 M115.26 29.97 C118.79 26.01, 123.52 20.11, 132.31 10.34 M120.24 30.33 C123.92 25.6, 125.38 22.17, 132.05 16.74 M120.24 30.33 C123.6 26.58, 127.43 23.28, 132.05 16.74 M125.23 30.69 C126.78 29.27, 129.05 25.16, 131.79 23.14 M125.23 30.69 C127.82 27.64, 129.96 25.36, 131.79 23.14 M4.55 29.82 C4.55 29.82, 4.55 29.82, 4.55 29.82 M4.55 29.82 C4.55 29.82, 4.55 29.82, 4.55 29.82 M10.2 29.43 C7.96 26.87, 3.67 24.45, 2.65 22.87 M10.2 29.43 C7.2 27.47, 4.98 24.9, 2.65 22.87 M16.59 29.69 C13.46 26.3, 8.79 22.28, 3.01 17.88 M16.59 29.69 C12.21 26.33, 8.7 23.66, 3.01 17.88 M22.24 29.29 C15.7 24.54, 14.94 21.39, 2.61 12.24 M22.24 29.29 C16.06 24.42, 9.75 18.62, 2.61 12.24 M28.63 29.55 C19.78 21.28, 8.23 12.4, 1.46 5.94 M28.63 29.55 C21.54 22.44, 14.93 16.94, 1.46 5.94 M35.03 29.82 C26.57 22.63, 21.08 16.69, 2.58 1.61 M35.03 29.82 C22.74 19.96, 11.58 9.31, 2.58 1.61 M40.67 29.42 C29.18 19.67, 17.91 9.43, 6.71 -0.1 M40.67 29.42 C30.32 20.39, 19.64 11.29, 6.71 -0.1 M47.07 29.68 C32.77 16.11, 20.81 6.05, 10.09 -2.46 M47.07 29.68 C33.58 16.75, 19.79 6.21, 10.09 -2.46 M53.47 29.94 C39.11 17.06, 26.13 4.38, 15.73 -2.86 M53.47 29.94 C42.75 20.42, 31.56 11.91, 15.73 -2.86 M59.11 29.55 C49.52 22.54, 38.67 14.75, 22.13 -2.6 M59.11 29.55 C49.72 21.39, 41.67 14.36, 22.13 -2.6 M65.51 29.81 C50.8 16.17, 38.71 4.92, 28.53 -2.34 M65.51 29.81 C52.21 17.82, 39.54 7.17, 28.53 -2.34 M71.91 30.07 C64.47 23.52, 54.43 14.74, 34.17 -2.73 M71.91 30.07 C57.52 17.96, 45.6 6.82, 34.17 -2.73 M77.55 29.68 C64.6 15.53, 50.64 4.78, 40.57 -2.47 M77.55 29.68 C67.57 21.59, 57.4 12.55, 40.57 -2.47 M83.95 29.94 C70.39 16.66, 54.42 6.2, 46.21 -2.86 M83.95 29.94 C75.4 22.49, 67.14 15.09, 46.21 -2.86 M89.59 29.55 C77.51 18.34, 64.47 4.96, 52.61 -2.6 M89.59 29.55 C74.7 16.09, 61.08 3.3, 52.61 -2.6 M95.99 29.81 C85.33 19.63, 77.37 13.43, 59.01 -2.34 M95.99 29.81 C84.41 20.51, 75.57 11.87, 59.01 -2.34 M102.39 30.07 C90.96 21.73, 83.39 12.52, 64.65 -2.73 M102.39 30.07 C92.15 19.92, 81.37 10.85, 64.65 -2.73 M108.03 29.67 C93.91 17.32, 79.16 7.45, 71.05 -2.47 M108.03 29.67 C98.54 20.94, 88.35 13.19, 71.05 -2.47 M114.43 29.93 C105.4 22.51, 99.74 17.1, 77.45 -2.21 M114.43 29.93 C107.16 23.5, 98.07 16.16, 77.45 -2.21 M120.83 30.2 C107.77 16.96, 93.68 4.57, 83.09 -2.61 M120.83 30.2 C111.56 22.76, 103.19 13.05, 83.09 -2.61 M125.72 29.15 C112.66 18.16, 100.96 4.81, 89.49 -2.35 M125.72 29.15 C114.24 17.89, 102.16 8.45, 89.49 -2.35 M130.6 28.1 C118.96 16.86, 106.81 5.36, 95.89 -2.08 M130.6 28.1 C123.36 22.38, 115.92 16.44, 95.89 -2.08 M132.47 24.42 C122.09 13.69, 109.54 4.48, 101.53 -2.48 M132.47 24.42 C121.68 14.93, 112.13 6.9, 101.53 -2.48 M132.83 19.43 C126.75 11.58, 119.2 6.25, 107.93 -2.22 M132.83 19.43 C127.15 13.84, 121.33 8.14, 107.93 -2.22 M132.44 13.79 C125.72 6.99, 119.53 0.69, 114.33 -1.96 M132.44 13.79 C127.94 9.84, 122.64 5.9, 114.33 -1.96 M132.8 8.8 C130.37 7.06, 126.07 2.09, 119.97 -2.35 M132.8 8.8 C127.87 4.12, 122.11 -0.55, 119.97 -2.35" stroke="#fab005" stroke-width="0.5" fill="none"></path><path d="M7.5 0 M7.5 0 C48.85 1.99, 91.32 -0.33, 124.5 0 M7.5 0 C53.32 1.21, 99.12 1.05, 124.5 0 M124.5 0 C129.29 -1.5, 132 3.41, 132 7.5 M124.5 0 C129.06 0.65, 130.81 4.26, 132 7.5 M132 7.5 C133.28 12.73, 132.41 16.47, 132 22.5 M132 7.5 C132.65 11.41, 131.43 13.84, 132 22.5 M132 22.5 C133.2 27.02, 129.8 31.07, 124.5 30 M132 22.5 C129.95 26.06, 129.22 28.84, 124.5 30 M124.5 30 C88.35 29.17, 48.31 31.04, 7.5 30 M124.5 30 C85.09 28.41, 46.05 29.92, 7.5 30 M7.5 30 C3.95 30.09, 1.23 25.75, 0 22.5 M7.5 30 C0.65 29.87, 1.15 26.41, 0 22.5 M0 22.5 C1.32 17.24, -1.05 12.4, 0 7.5 M0 22.5 C-0.34 18.9, 0.6 15.6, 0 7.5 M0 7.5 C0.02 2.49, 2.82 -1.95, 7.5 0 M0 7.5 C-2.3 3.8, 1.46 0.21, 7.5 0" stroke="#000000" stroke-width="1" fill="none"></path></g><g transform="translate(760.12890625 207.8359375) rotate(0 60.80797576904297 10)"><text x="0" y="0" font-family="Virgil, Segoe UI Emoji" font-size="16px" fill="#000000" text-anchor="start" style="white-space: pre;" direction="ltr" dominant-baseline="text-before-edge">CUSTOM SMTP</text></g><g stroke-linecap="round" transform="translate(772.94140625 273.46875) rotate(0.15565151020811396 44 15)"><path d="M2 1.74 C2 1.74, 2 1.74, 2 1.74 M2 1.74 C2 1.74, 2 1.74, 2 1.74 M1.08 8.89 C2.84 6.27, 6.82 3.61, 8.3 0.59 M1.08 8.89 C3.08 6.36, 6.08 3.17, 8.3 0.59 M1.47 14.53 C5.1 10.7, 8.65 6.56, 13.28 0.95 M1.47 14.53 C5.51 9.23, 9.55 4.72, 13.28 0.95 M1.87 20.17 C7.16 16.65, 9.93 11.36, 18.93 0.55 M1.87 20.17 C8.31 12.45, 15.4 4.14, 18.93 0.55 M1.61 26.57 C9.82 16.61, 16.45 5.7, 23.91 0.91 M1.61 26.57 C5.25 21.82, 11.33 15.4, 23.91 0.91 M3.97 29.95 C12.05 21.69, 19.64 13.12, 29.56 0.52 M3.97 29.95 C9.33 22.37, 17.41 16.45, 29.56 0.52 M9.61 29.56 C16.13 20.47, 27.35 11.5, 34.54 0.88 M9.61 29.56 C18.66 20.34, 26.54 10.32, 34.54 0.88 M14.6 29.92 C22.9 21.81, 29.71 12.37, 40.19 0.48 M14.6 29.92 C22.93 20.75, 30.81 11.38, 40.19 0.48 M20.24 29.52 C28.71 16.56, 39.71 8.72, 45.17 0.84 M20.24 29.52 C27.49 20.95, 33.66 13.76, 45.17 0.84 M25.23 29.88 C32.51 24.49, 35.64 18.25, 50.16 1.2 M25.23 29.88 C33.87 20.38, 43.31 8.8, 50.16 1.2 M30.87 29.49 C36.64 20.5, 41.36 16.11, 55.8 0.81 M30.87 29.49 C38.35 21.38, 43.55 13.63, 55.8 0.81 M35.86 29.85 C41.47 23.51, 46.56 16.64, 60.79 1.17 M35.86 29.85 C41.53 22.64, 47.72 16.58, 60.79 1.17 M41.5 29.45 C50.06 21.03, 54.65 13.97, 66.43 0.77 M41.5 29.45 C49.9 20.96, 55.58 12.15, 66.43 0.77 M46.49 29.81 C55.43 21.45, 63.71 11.37, 71.42 1.13 M46.49 29.81 C53.74 20.13, 61.6 11.71, 71.42 1.13 M51.48 30.17 C60.54 22.58, 69.17 10.08, 77.06 0.74 M51.48 30.17 C57.6 23.28, 64.07 15.94, 77.06 0.74 M57.12 29.78 C62.09 25.4, 68.13 18.51, 82.05 1.1 M57.12 29.78 C65.69 21.19, 73.06 12.2, 82.05 1.1 M62.11 30.14 C71.3 21.23, 76.62 13.6, 86.38 2.21 M62.11 30.14 C70.36 19.94, 79.83 11.51, 86.38 2.21 M67.75 29.74 C71.94 24.34, 78.06 18.89, 88.74 5.59 M67.75 29.74 C73.88 22.13, 78.4 16.16, 88.74 5.59 M72.74 30.1 C78.01 25.92, 81.59 21.48, 89.14 11.24 M72.74 30.1 C78.56 24.5, 82.36 18.02, 89.14 11.24 M78.38 29.71 C82.76 24.52, 83.92 23.82, 88.88 17.63 M78.38 29.71 C81.19 25.46, 85.04 22.38, 88.88 17.63 M82.05 31.58 C84.12 30.55, 85.96 27.15, 88.62 24.03 M82.05 31.58 C83.1 30.02, 84.53 28.88, 88.62 24.03 M4.55 29.82 C4.55 29.82, 4.55 29.82, 4.55 29.82 M4.55 29.82 C4.55 29.82, 4.55 29.82, 4.55 29.82 M10.2 29.43 C7.28 28.59, 6.21 26.12, 2.65 22.87 M10.2 29.43 C7.18 27.29, 4.85 24.49, 2.65 22.87 M16.59 29.69 C13.53 26.15, 10.48 25.6, 3.01 17.88 M16.59 29.69 C12.29 25.12, 7.37 21.74, 3.01 17.88 M22.99 29.95 C15.58 24.9, 8.09 17.1, 2.61 12.24 M22.99 29.95 C15.24 22.99, 9.08 18.54, 2.61 12.24 M28.63 29.55 C22.23 23.24, 14.25 17.44, 1.46 5.94 M28.63 29.55 C22.35 22.61, 15.01 17.91, 1.46 5.94 M35.03 29.82 C25.23 20.3, 18.47 13.52, 2.58 1.61 M35.03 29.82 C25.85 22.47, 17.38 14.06, 2.58 1.61 M41.43 30.08 C33.59 22.66, 24.39 16.08, 6.71 -0.1 M41.43 30.08 C27.64 17.99, 15.53 6.58, 6.71 -0.1 M47.07 29.68 C39.33 23.38, 29.46 15.71, 10.09 -2.46 M47.07 29.68 C35.43 20.84, 25.17 9.51, 10.09 -2.46 M53.47 29.94 C37.75 15.74, 25.02 3.99, 15.73 -2.86 M53.47 29.94 C43.49 21.95, 32.21 11.51, 15.73 -2.86 M59.11 29.55 C49.27 18.02, 37.18 9.66, 22.13 -2.6 M59.11 29.55 C48 20.63, 37.71 10.95, 22.13 -2.6 M65.51 29.81 C53.14 19.95, 44.51 11.44, 28.53 -2.34 M65.51 29.81 C51.44 16.8, 36.91 6.28, 28.53 -2.34 M71.91 30.07 C60.54 22.09, 51.93 13.29, 34.17 -2.73 M71.91 30.07 C57.01 17.54, 42.3 3.76, 34.17 -2.73 M77.55 29.68 C65.72 19.95, 55.71 11.84, 40.57 -2.47 M77.55 29.68 C67.92 19.67, 56.78 11.62, 40.57 -2.47 M81.69 27.97 C73.42 18.47, 63.42 11.69, 46.97 -2.21 M81.69 27.97 C71.35 19.65, 62.52 11.73, 46.97 -2.21 M86.57 26.92 C74.71 15.28, 59.67 3.01, 52.61 -2.6 M86.57 26.92 C77.44 19.14, 68.89 12.8, 52.61 -2.6 M89.2 23.9 C78.55 15.14, 67.02 6.41, 59.01 -2.34 M89.2 23.9 C77.22 14.5, 66.81 5.44, 59.01 -2.34 M88.8 18.26 C83.79 13.45, 75.88 6.88, 65.41 -2.08 M88.8 18.26 C82.1 11.72, 75.22 4.82, 65.41 -2.08 M89.16 13.27 C81.49 6.01, 75.43 1.97, 71.05 -2.47 M89.16 13.27 C81.74 6.99, 75.55 2.34, 71.05 -2.47 M89.52 8.28 C86.71 5.29, 81.83 3.64, 77.45 -2.21 M89.52 8.28 C84.84 4.33, 80.8 -0.44, 77.45 -2.21" stroke="#fab005" stroke-width="0.5" fill="none"></path><path d="M7.5 0 M7.5 0 C25.16 -1.88, 39.48 1.22, 80.5 0 M7.5 0 C28.85 0.06, 49.79 0.17, 80.5 0 M80.5 0 C85.34 -0.68, 86.05 2.32, 88 7.5 M80.5 0 C84.45 1.15, 86.2 2.54, 88 7.5 M88 7.5 C88.59 12.34, 87.24 19.36, 88 22.5 M88 7.5 C87.81 11.14, 88.07 14.61, 88 22.5 M88 22.5 C89.16 27.78, 83.75 31.21, 80.5 30 M88 22.5 C88.73 29.12, 84.08 32.21, 80.5 30 M80.5 30 C53.05 31.95, 26.24 29.3, 7.5 30 M80.5 30 C58.02 30.22, 37.63 29.52, 7.5 30 M7.5 30 C3.88 28.16, -1.84 27.73, 0 22.5 M7.5 30 C4.06 31.28, -0.97 26.32, 0 22.5 M0 22.5 C0.37 19.11, 0.03 15.1, 0 7.5 M0 22.5 C0.56 18.85, 0.5 14.84, 0 7.5 M0 7.5 C1.65 2.32, 1.99 -0.96, 7.5 0 M0 7.5 C2.04 1.74, 3.87 1.44, 7.5 0" stroke="#000000" stroke-width="1" fill="none"></path></g><g transform="translate(777.94140625 278.46875) rotate(0.15565151020811396 37.70397186279297 10)"><text x="0" y="0" font-family="Virgil, Segoe UI Emoji" font-size="16px" fill="#000000" text-anchor="start" style="white-space: pre;" direction="ltr" dominant-baseline="text-before-edge">MAILGUN</text></g><g stroke-linecap="round"><g transform="translate(658.50390625 235.33984375) rotate(0 46.30675021559 -6.624015130102634)"><path d="M-0.98 0.15 C14.55 -1.97, 77.53 -11.16, 93.59 -13.4" stroke="#000000" stroke-width="1.5" fill="none" stroke-dasharray="8 9"></path></g><g transform="translate(658.50390625 235.33984375) rotate(0 46.30675021559 -6.624015130102634)"><path d="M67.38 -0.53 C77.39 -2.06, 86.54 -8.5, 94.82 -15.14" stroke="#000000" stroke-width="1.5" fill="none"></path></g><g transform="translate(658.50390625 235.33984375) rotate(0 46.30675021559 -6.624015130102634)"><path d="M64.48 -20.85 C75.35 -15.49, 85.48 -15.06, 94.82 -15.14" stroke="#000000" stroke-width="1.5" fill="none"></path></g></g><mask></mask><g stroke-linecap="round"><g transform="translate(656.73828125 246.03125) rotate(0 55.7311113968492 22.43917480558156)"><path d="M-0.17 -0.29 C18.46 7.04, 93.03 37.92, 111.63 45.17" stroke="#000000" stroke-width="1.5" fill="none" stroke-dasharray="8 9"></path></g><g transform="translate(656.73828125 246.03125) rotate(0 55.7311113968492 22.43917480558156)"><path d="M81.16 44.36 C91.58 44.41, 97.02 45.16, 110.71 46.46" stroke="#000000" stroke-width="1.5" fill="none"></path></g><g transform="translate(656.73828125 246.03125) rotate(0 55.7311113968492 22.43917480558156)"><path d="M88.84 25.33 C97.23 30.87, 100.44 37.14, 110.71 46.46" stroke="#000000" stroke-width="1.5" fill="none"></path></g></g><mask></mask><g stroke-linecap="round" transform="translate(10.07421875 10) rotate(0 78.2421875 119.580078125)"><path d="M7.86 8.16 C7.86 8.16, 7.86 8.16, 7.86 8.16 M7.86 8.16 C7.86 8.16, 7.86 8.16, 7.86 8.16 M3.66 19.09 C6.27 14.9, 10.77 10.37, 18.1 2.48 M3.66 19.09 C8.36 14.32, 10.5 10.56, 18.1 2.48 M2.75 26.24 C9.74 17.73, 18.85 10.04, 24.4 1.33 M2.75 26.24 C8.58 18.75, 13.78 13.48, 24.4 1.33 M2.48 32.64 C9.19 21.42, 19.35 13.23, 30.7 0.18 M2.48 32.64 C9.6 23.9, 18.86 13.7, 30.7 0.18 M2.88 38.28 C8.81 30.38, 16.86 23.42, 34.37 2.05 M2.88 38.28 C14.02 25.15, 25.63 12.47, 34.37 2.05 M2.62 44.68 C14.45 29.64, 26.96 17.75, 39.36 2.41 M2.62 44.68 C12.91 32.44, 21.69 21.21, 39.36 2.41 M2.36 51.07 C15.23 35.71, 25.92 22.6, 45 2.02 M2.36 51.07 C10.95 41.95, 18.52 32.14, 45 2.02 M2.75 56.72 C13.53 42.11, 28.13 30.43, 49.99 2.38 M2.75 56.72 C19.45 36.65, 35.68 17.79, 49.99 2.38 M2.49 63.11 C13.02 50.11, 25.76 37.24, 55.63 1.98 M2.49 63.11 C22.36 40.15, 42.53 17.72, 55.63 1.98 M2.23 69.51 C19.43 49.71, 37.88 30.11, 60.62 2.34 M2.23 69.51 C24.64 44.53, 45.27 19.79, 60.62 2.34 M2.62 75.16 C25.49 47.88, 49.34 19.97, 66.26 1.95 M2.62 75.16 C24.46 50.18, 46.58 22.89, 66.26 1.95 M2.36 81.55 C25.14 51.79, 50.35 26.31, 71.25 2.31 M2.36 81.55 C24.16 56.55, 45.95 30.85, 71.25 2.31 M2.76 87.2 C28.73 59.19, 53.27 27.12, 76.89 1.91 M2.76 87.2 C27.12 59.7, 51.17 31.91, 76.89 1.91 M2.49 93.59 C30.19 62.59, 57.31 33.07, 81.88 2.27 M2.49 93.59 C27.16 66.29, 51.33 37.45, 81.88 2.27 M2.23 99.99 C24.33 75.06, 45.57 53.48, 86.86 2.63 M2.23 99.99 C22.7 76.73, 43.06 53.68, 86.86 2.63 M2.63 105.64 C33.54 70.74, 60.8 38.35, 92.51 2.24 M2.63 105.64 C20.39 82.94, 41.29 61.9, 92.51 2.24 M2.37 112.03 C40.51 68.98, 78.62 23.35, 97.49 2.6 M2.37 112.03 C35.03 74.82, 67.35 37.5, 97.49 2.6 M2.1 118.43 C34.36 80.24, 71.03 37.54, 103.14 2.21 M2.1 118.43 C42.86 72.25, 83.32 24.65, 103.14 2.21 M2.5 124.07 C31.75 90.14, 55.98 59.06, 108.12 2.57 M2.5 124.07 C28.1 94.14, 55.84 63.66, 108.12 2.57 M2.24 130.47 C47.27 77.96, 91.16 27.75, 113.77 2.17 M2.24 130.47 C45.88 79.69, 88.15 31.08, 113.77 2.17 M2.63 136.11 C35.69 99.16, 70.7 58.48, 118.76 2.53 M2.63 136.11 C37.15 97.33, 69.6 58.65, 118.76 2.53 M2.37 142.51 C33.57 104.21, 63.71 66.98, 124.4 2.14 M2.37 142.51 C28.29 113.8, 54.79 84.15, 124.4 2.14 M2.11 148.91 C35.3 109.62, 67.93 70.84, 129.39 2.5 M2.11 148.91 C41.69 104.22, 80.71 56.27, 129.39 2.5 M2.5 154.55 C42.62 112.24, 80.83 66.9, 134.37 2.86 M2.5 154.55 C36.38 115.17, 71.1 76.55, 134.37 2.86 M2.24 160.95 C55.33 98.44, 111.94 36.77, 138.7 3.97 M2.24 160.95 C45.51 111.19, 90.51 60.08, 138.7 3.97 M1.98 167.35 C58.26 102.66, 113.76 40.23, 143.03 5.09 M1.98 167.35 C35.1 129.25, 68.27 91.57, 143.03 5.09 M2.38 172.99 C33.15 137.26, 64.45 101.06, 146.71 6.96 M2.38 172.99 C36.88 134.08, 71.9 93.75, 146.71 6.96 M2.11 179.39 C36.3 137.9, 74.95 95.48, 149.73 9.58 M2.11 179.39 C55.62 116, 109.51 54.34, 149.73 9.58 M2.51 185.03 C38.75 143.39, 78.15 100.93, 152.09 12.96 M2.51 185.03 C50.54 130.41, 97.53 75.81, 152.09 12.96 M2.25 191.43 C47.7 136.84, 92.35 84.12, 153.8 17.09 M2.25 191.43 C39.92 150.48, 76.32 108.55, 153.8 17.09 M1.99 197.83 C61.16 131.26, 115.83 64.56, 156.82 19.72 M1.99 197.83 C51.76 138.11, 104.46 78.98, 156.82 19.72 M2.38 203.47 C59.24 135.76, 117.39 67.53, 157.21 25.36 M2.38 203.47 C57.37 140.39, 112.29 76.81, 157.21 25.36 M2.78 209.11 C39.28 167.09, 75.52 126.78, 156.95 31.76 M2.78 209.11 C36.62 170.7, 69.88 131.64, 156.95 31.76 M3.17 214.76 C44.06 168.91, 84.66 119.37, 156.69 38.16 M3.17 214.76 C54.78 156.33, 106.24 96.7, 156.69 38.16 M2.25 221.91 C43.27 171.98, 85.22 126.47, 156.43 44.55 M2.25 221.91 C34.78 185.74, 65.41 148.82, 156.43 44.55 M4.62 225.29 C53.35 169.39, 104.46 111.1, 156.82 50.2 M4.62 225.29 C57.84 163.42, 111.18 102.46, 156.82 50.2 M6.98 228.67 C45.7 185.07, 84.83 139.66, 156.56 56.59 M6.98 228.67 C48.81 179.7, 90.51 129.5, 156.56 56.59 M10 231.29 C48.24 185.1, 90.72 140.15, 156.95 62.24 M10 231.29 C53.32 180.44, 97.56 132.24, 156.95 62.24 M12.36 234.67 C65.83 174.05, 119.15 110.62, 156.69 68.64 M12.36 234.67 C63.59 173.91, 116.57 114.45, 156.69 68.64 M15.38 237.3 C41.7 205.85, 71.55 170.96, 156.43 75.03 M15.38 237.3 C69.94 175.61, 123.93 112.74, 156.43 75.03 M19.71 238.41 C63.73 186.81, 109.23 135.04, 156.83 80.68 M19.71 238.41 C58.28 192.86, 96.79 147.54, 156.83 80.68 M24.04 239.53 C76.2 179.9, 127.09 121.85, 156.56 87.07 M24.04 239.53 C75.7 178.57, 127.95 116.75, 156.56 87.07 M29.03 239.89 C54.92 204.66, 84.05 174.42, 156.3 93.47 M29.03 239.89 C58.6 207.78, 86.04 176.1, 156.3 93.47 M33.36 241 C66.86 203.16, 95.19 169.54, 156.7 99.11 M33.36 241 C59.72 212.61, 85.14 183.36, 156.7 99.11 M39 240.61 C77.89 193.94, 116.74 149.89, 156.44 105.51 M39 240.61 C71.77 203.94, 104.61 165.48, 156.44 105.51 M43.99 240.97 C88.57 191.03, 135.18 140.1, 156.83 111.16 M43.99 240.97 C70.45 211.23, 98.27 178.72, 156.83 111.16 M49.63 240.57 C80.98 206.22, 111.3 171.28, 156.57 117.55 M49.63 240.57 C82.01 204.12, 113.11 167.67, 156.57 117.55 M54.62 240.93 C93.37 196.56, 133.55 151.14, 156.31 123.95 M54.62 240.93 C79.36 211.76, 103.62 184.49, 156.31 123.95 M60.26 240.54 C86.97 208.44, 116.35 174.96, 156.7 129.59 M60.26 240.54 C81.19 214.67, 103.68 189.51, 156.7 129.59 M65.25 240.9 C99.02 202.48, 133.13 160.6, 156.44 135.99 M65.25 240.9 C92.52 210.73, 118.9 178.72, 156.44 135.99 M70.89 240.5 C99.19 209.67, 124.54 180.29, 156.84 141.64 M70.89 240.5 C103.21 204.49, 136.2 166.16, 156.84 141.64 M75.88 240.86 C98.36 216, 118.55 196.05, 156.57 148.03 M75.88 240.86 C93.39 218.51, 111.57 198.84, 156.57 148.03 M81.52 240.47 C102.57 215.74, 124.7 193, 156.31 154.43 M81.52 240.47 C111.24 207.82, 140.6 174.9, 156.31 154.43 M86.51 240.83 C105.94 217.31, 126.22 195.39, 156.71 160.07 M86.51 240.83 C111.79 210.37, 138.72 181.08, 156.71 160.07 M92.15 240.43 C112.93 214.85, 134.55 189.06, 156.45 166.47 M92.15 240.43 C118.21 210.74, 143.4 180.4, 156.45 166.47 M97.14 240.79 C118.18 216.1, 141.07 193.01, 156.84 172.11 M97.14 240.79 C121.85 215.04, 145.32 187.74, 156.84 172.11 M102.78 240.4 C120.62 220.97, 140.67 198.56, 156.58 178.51 M102.78 240.4 C118.68 219.53, 136.67 200.86, 156.58 178.51 M107.77 240.76 C120.09 227.01, 129.53 214.6, 156.32 184.91 M107.77 240.76 C123.35 223.76, 139.71 205.47, 156.32 184.91 M113.41 240.36 C130.21 224.93, 144.46 205.95, 156.71 190.55 M113.41 240.36 C129.43 222.17, 143.82 206.2, 156.71 190.55 M118.4 240.72 C131.42 227.7, 143.01 210.08, 156.45 196.95 M118.4 240.72 C129.25 228.59, 140.79 215.51, 156.45 196.95 M124.7 239.57 C134.23 227.75, 148.08 213.57, 156.85 202.59 M124.7 239.57 C133.56 229.62, 141.7 219.98, 156.85 202.59 M131 238.43 C140.14 228.24, 150.53 213.61, 157.24 208.24 M131 238.43 C140.96 226.72, 148.97 216.57, 157.24 208.24 M136.64 238.03 C142.4 231.39, 149.47 222.3, 156.32 215.39 M136.64 238.03 C143.08 230.91, 151.98 222.61, 156.32 215.39 M144.25 235.37 C148.92 231.05, 149.97 227.75, 155.4 222.54 M144.25 235.37 C148.44 231.77, 151.86 226.43, 155.4 222.54 M12.21 234.41 C12.21 234.41, 12.21 234.41, 12.21 234.41 M12.21 234.41 C12.21 234.41, 12.21 234.41, 12.21 234.41 M19.36 235.33 C16.92 231.91, 14.13 229.36, 2.76 220.89 M19.36 235.33 C12.93 230.72, 7.67 225.2, 2.76 220.89 M26.51 236.24 C18.99 227.07, 9.52 220.85, 1.61 214.59 M26.51 236.24 C21.13 230.22, 14.51 225.61, 1.61 214.59 M33.67 237.16 C22.16 227.73, 13.4 218.01, 0.46 208.29 M33.67 237.16 C24.53 229.3, 15.74 222.07, 0.46 208.29 M40.06 237.42 C29.84 225.26, 16.05 217.15, 2.33 204.62 M40.06 237.42 C30.52 230.43, 21.31 221.3, 2.33 204.62 M45.71 237.03 C31.86 224.6, 19.65 215.8, 1.93 198.98 M45.71 237.03 C32.32 225.91, 21.15 214.33, 1.93 198.98 M52.11 237.29 C37.64 221.37, 17.98 209.54, 2.29 193.99 M52.11 237.29 C39.4 225.83, 26.41 214.11, 2.29 193.99 M57.75 236.89 C40.45 224.54, 27.34 210.37, 2.65 189 M57.75 236.89 C39.53 220.4, 22.56 206.14, 2.65 189 M64.15 237.16 C39.7 217.1, 14.98 195.05, 2.26 183.36 M64.15 237.16 C48.26 222.58, 32.93 209.16, 2.26 183.36 M70.54 237.42 C49.75 221.95, 30.39 204.7, 2.62 178.37 M70.54 237.42 C53.14 222.99, 36.29 208.64, 2.62 178.37 M76.19 237.02 C53.75 215.47, 31.11 197.94, 2.23 172.73 M76.19 237.02 C54.49 217.97, 34.08 200.81, 2.23 172.73 M82.59 237.28 C62.77 223, 44.97 205.98, 2.59 167.74 M82.59 237.28 C62.62 219.7, 42.62 200.68, 2.59 167.74 M88.23 236.89 C66.32 220.92, 45.3 200.83, 2.19 162.1 M88.23 236.89 C58.08 212.26, 26.11 184.46, 2.19 162.1 M94.63 237.15 C77.64 219.71, 57.3 203.87, 2.55 157.11 M94.63 237.15 C72.75 218.09, 49.77 199.35, 2.55 157.11 M101.02 237.41 C68.3 211.48, 39.68 183.43, 2.16 151.47 M101.02 237.41 C63.39 203.74, 23.87 170.98, 2.16 151.47 M106.67 237.02 C75.85 212.63, 47.58 187.36, 2.52 146.48 M106.67 237.02 C78.71 211.32, 50.82 187.03, 2.52 146.48 M113.06 237.28 C84.67 215.34, 60.22 191.92, 2.12 140.84 M113.06 237.28 C80.86 208.85, 49.94 183.51, 2.12 140.84 M118.71 236.88 C82.24 205.42, 46.91 173.02, 2.48 135.85 M118.71 236.88 C81.08 205.27, 41.72 171.64, 2.48 135.85 M125.86 237.8 C91.62 205.36, 55.76 176.17, 2.09 130.21 M125.86 237.8 C99.2 217.53, 75.86 193.99, 2.09 130.21 M130.75 236.75 C93.78 205.17, 60.7 172.85, 2.45 125.22 M130.75 236.75 C89.73 202.63, 47.41 166.28, 2.45 125.22 M136.39 236.36 C92.75 200.94, 53.21 165.15, 2.81 120.23 M136.39 236.36 C96.57 202.15, 57.64 167.73, 2.81 120.23 M140.53 234.65 C86.96 189.32, 34.72 145.06, 2.41 114.59 M140.53 234.65 C98.86 198.68, 57.59 162.85, 2.41 114.59 M145.41 233.6 C102.42 194.86, 59.25 160.67, 2.77 109.6 M145.41 233.6 C113.41 205.55, 82.62 179.5, 2.77 109.6 M148.04 230.58 C96.38 185.95, 49.04 143.34, 2.38 103.96 M148.04 230.58 C112.31 201.26, 76.79 170.08, 2.38 103.96 M150.66 227.56 C112.18 196.54, 75.28 162.04, 2.74 98.97 M150.66 227.56 C94.76 181.34, 40.16 132.94, 2.74 98.97 M153.29 224.54 C109.3 185.33, 64.03 149.18, 2.34 93.33 M153.29 224.54 C116.69 193.27, 80.69 160.82, 2.34 93.33 M155.16 220.87 C112.76 181.83, 66.62 143.09, 2.7 88.34 M155.16 220.87 C115.41 186.81, 75.53 151.6, 2.7 88.34 M155.52 215.88 C109.44 175.95, 65.45 136.64, 2.31 82.7 M155.52 215.88 C101.12 169.72, 46.82 121.75, 2.31 82.7 M156.63 211.55 C100.61 163, 46.97 116.84, 2.67 77.71 M156.63 211.55 C101 164.41, 47.25 118.02, 2.67 77.71 M156.99 206.56 C122.83 179.12, 89.54 149.5, 2.28 72.07 M156.99 206.56 C103.52 158.79, 50.37 112.61, 2.28 72.07 M157.35 201.58 C106.77 160.47, 58.65 117.13, 2.64 67.08 M157.35 201.58 C120.74 170.09, 85.22 139.6, 2.64 67.08 M156.96 195.93 C116.47 159.12, 72.73 122.79, 3 62.1 M156.96 195.93 C107.78 154.4, 59.53 112.4, 3 62.1 M157.32 190.95 C119.63 158.08, 83.01 125.93, 2.6 56.45 M157.32 190.95 C125.4 163.25, 91.32 133.84, 2.6 56.45 M156.92 185.3 C119.87 150.34, 82.9 118.53, 2.96 51.47 M156.92 185.3 C113.61 145.67, 68.73 108.13, 2.96 51.47 M157.28 180.32 C104.99 133.36, 52.26 88.68, 2.57 45.82 M157.28 180.32 C104.68 132.63, 51.02 86.87, 2.57 45.82 M156.89 174.67 C109.44 137.45, 64.67 96.81, 2.93 40.84 M156.89 174.67 C120.42 140.98, 84.07 109.37, 2.93 40.84 M157.25 169.69 C125.44 140.17, 93.33 115.88, 2.53 35.19 M157.25 169.69 C126.4 142.61, 93.55 114.81, 2.53 35.19 M156.85 164.04 C105.02 119.5, 52.22 73.67, 2.89 30.21 M156.85 164.04 C115.63 127.6, 77.34 93.86, 2.89 30.21 M157.21 159.06 C96.22 107.7, 35.35 51.88, 0.99 23.25 M157.21 159.06 C107.95 117.54, 60.31 75.25, 0.99 23.25 M156.82 153.41 C111.53 115.59, 69.41 74.91, 2.1 18.92 M156.82 153.41 C98.85 101.98, 41.06 52.13, 2.1 18.92 M157.18 148.43 C119.48 115.94, 84.01 84.69, 3.97 15.25 M157.18 148.43 C111.9 110.12, 67.51 69.39, 3.97 15.25 M156.78 142.78 C95.49 94.34, 36.52 42.72, 6.6 12.23 M156.78 142.78 C105.13 99.96, 54.13 53.79, 6.6 12.23 M157.14 137.8 C122.13 105.13, 85.21 73.8, 8.47 8.55 M157.14 137.8 C107.22 94.02, 56.39 51.17, 8.47 8.55 M156.75 132.15 C117.6 98.8, 74.41 59.47, 10.34 4.88 M156.75 132.15 C120.5 99.2, 83.23 67.75, 10.34 4.88 M157.11 127.17 C119.17 96.3, 83.98 63.91, 14.47 3.17 M157.11 127.17 C109.82 87.26, 61.17 44.36, 14.47 3.17 M156.72 121.52 C107.69 76.65, 54.75 34.33, 18.6 1.46 M156.72 121.52 C112.02 83.2, 67.99 44.79, 18.6 1.46 M157.08 116.54 C113.06 76.5, 68.33 40.73, 23.49 0.41 M157.08 116.54 C113.08 77.81, 68.2 38.96, 23.49 0.41 M156.68 110.89 C127.16 86.92, 101.55 61.77, 29.13 0.02 M156.68 110.89 C117.27 78.32, 78.35 43.68, 29.13 0.02 M157.04 105.9 C126.49 77.67, 91.57 52.08, 33.27 -1.69 M157.04 105.9 C121.56 76.13, 85.16 44.85, 33.27 -1.69 M156.65 100.26 C114.6 65.49, 73.38 27.61, 39.67 -1.43 M156.65 100.26 C125.19 73.53, 91.18 43.69, 39.67 -1.43 M157.01 95.27 C133.86 74.53, 109.76 54.03, 45.31 -1.82 M157.01 95.27 C122.07 65.41, 86.94 33.51, 45.31 -1.82 M157.37 90.29 C125.12 63.02, 94.68 36.35, 51.71 -1.56 M157.37 90.29 C128.95 65.78, 101.14 42.15, 51.71 -1.56 M156.97 84.64 C123.59 56.22, 87.02 25.84, 58.1 -1.3 M156.97 84.64 C136.14 65.94, 113.58 46.02, 58.1 -1.3 M157.33 79.66 C128.57 54.1, 97.93 26.07, 63.75 -1.69 M157.33 79.66 C138.22 63.47, 118.23 45.77, 63.75 -1.69 M156.94 74.01 C125.64 49.54, 93.58 19.12, 70.15 -1.43 M156.94 74.01 C123.13 46.34, 90.59 16.48, 70.15 -1.43 M157.3 69.03 C134.31 49.52, 115.2 32.85, 76.54 -1.17 M157.3 69.03 C126.11 41.57, 96.37 16.16, 76.54 -1.17 M156.9 63.38 C134.58 44.69, 107.13 21.14, 82.19 -1.57 M156.9 63.38 C135.29 44.58, 113.39 26.59, 82.19 -1.57 M157.26 58.4 C132.58 37.61, 109.98 17.27, 88.58 -1.3 M157.26 58.4 C129.35 34.46, 102.21 11.74, 88.58 -1.3 M156.87 52.75 C139.32 36.26, 121.52 20.63, 94.98 -1.04 M156.87 52.75 C135.17 34.53, 112.91 13.86, 94.98 -1.04 M157.23 47.77 C137.71 29.66, 117.32 13.67, 100.63 -1.44 M157.23 47.77 C136.92 29.35, 114.08 9.51, 100.63 -1.44 M156.83 42.12 C144.5 31.12, 129.53 17.32, 107.02 -1.18 M156.83 42.12 C140.05 28.03, 122.21 12.31, 107.02 -1.18 M157.19 37.14 C147.43 29.11, 137.51 20.75, 113.42 -0.91 M157.19 37.14 C148.12 28.97, 139.3 20.25, 113.42 -0.91 M156.8 31.49 C145.67 21.2, 133.47 10.35, 119.06 -1.31 M156.8 31.49 C143.98 19, 131.33 9.3, 119.06 -1.31 M155.65 25.2 C148.93 19.57, 141.89 12.85, 125.46 -1.05 M155.65 25.2 C147.44 17.62, 138.85 9.86, 125.46 -1.05 M155.26 19.55 C151.77 14.47, 145.65 11.38, 132.61 -0.13 M155.26 19.55 C147.53 12.37, 139.63 5.13, 132.61 -0.13" stroke="#ced4da" stroke-width="0.5" fill="none"></path><path d="M32 0 M32 0 C66.43 1.37, 105.26 -0.28, 124.48 0 M124.48 0 C146.93 1.97, 158.22 11.4, 156.48 32 M156.48 32 C154.98 80.17, 154.68 126.2, 156.48 207.16 M156.48 207.16 C158 230.34, 145.34 240.19, 124.48 239.16 M124.48 239.16 C86.44 239.9, 51.56 238.69, 32 239.16 M32 239.16 C9.22 237.74, 1.54 229.72, 0 207.16 M0 207.16 C1.63 165.52, 0.15 125.45, 0 32 M0 32 C-1.76 9.78, 10.63 1.05, 32 0" stroke="#000000" stroke-width="1.5" fill="none" stroke-dasharray="8 9"></path></g><g transform="translate(29.58844757080078 15) rotate(0 58.72795867919922 10)"><text x="58.72795867919922" y="0" font-family="Virgil, Segoe UI Emoji" font-size="16px" fill="#000000" text-anchor="middle" style="white-space: pre;" direction="ltr" dominant-baseline="text-before-edge">STATIC PAGE</text></g><g stroke-linecap="round" transform="translate(50.65234375 128.5390625) rotate(0 36.46875 44.48046875)"><path d="M20.02 -1.06 L60.28 -1.53 L64.63 1.36 L70.24 6.9 L73.16 18.54 L72.02 69.2 L72.17 76.73 L67.79 85.53 L55.69 90.09 L12.92 89.94 L6.29 87.82 L2.4 80.8 L-0.6 72.07 L2.05 14.94 L6.1 6.48 L11.55 -0.19 L19.04 -1.15" stroke="none" stroke-width="0" fill="#868e96"></path><path d="M18.23 0 M18.23 0 C24.56 0.2, 33.7 0.55, 54.7 0 M54.7 0 C68.45 1.47, 71.8 6.38, 72.94 18.23 M72.94 18.23 C72.88 33.15, 71.03 48.99, 72.94 70.73 M72.94 70.73 C72.28 84.07, 66.33 90.29, 54.7 88.96 M54.7 88.96 C46.57 88.38, 38.67 90.67, 18.23 88.96 M18.23 88.96 C4.88 89.77, -1.62 83.54, 0 70.73 M0 70.73 C0.27 59.02, -1.05 50.03, 0 18.23 M0 18.23 C-1.6 4.38, 7.17 -0.54, 18.23 0" stroke="#000000" stroke-width="1.5" fill="none" stroke-dasharray="8 9"></path></g><g transform="translate(69.59310913085938 163.01953125) rotate(0 17.527984619140625 10)"><text x="17.527984619140625" y="0" font-family="Virgil, Segoe UI Emoji" font-size="16px" fill="#000000" text-anchor="middle" style="white-space: pre;" direction="ltr" dominant-baseline="text-before-edge">Form</text></g><g stroke-opacity="0.7" fill-opacity="0.7" stroke-linecap="round" transform="translate(10 281.416015625) rotate(0 78.2421875 119.580078125)"><path d="M7.86 8.16 C7.86 8.16, 7.86 8.16, 7.86 8.16 M7.86 8.16 C7.86 8.16, 7.86 8.16, 7.86 8.16 M3.66 19.09 C8.93 12.17, 15.95 6.32, 18.1 2.48 M3.66 19.09 C6.52 14.88, 9.53 11.93, 18.1 2.48 M2.75 26.24 C10.7 17.74, 16.53 12.67, 24.4 1.33 M2.75 26.24 C9.17 20.32, 14.88 11.98, 24.4 1.33 M2.48 32.64 C11.23 25.88, 17.13 15.16, 30.7 0.18 M2.48 32.64 C11.22 23.67, 18.97 14.9, 30.7 0.18 M2.88 38.28 C11.16 26.72, 20.81 15.78, 34.37 2.05 M2.88 38.28 C8.74 29.56, 17.18 22.13, 34.37 2.05 M2.62 44.68 C15.45 29.35, 29.08 13.78, 39.36 2.41 M2.62 44.68 C16.61 29.27, 29.28 14.05, 39.36 2.41 M2.36 51.07 C14.15 35.1, 29.38 20.56, 45 2.02 M2.36 51.07 C11.41 39.48, 22.3 29.33, 45 2.02 M2.75 56.72 C19.25 37.72, 33.96 18.93, 49.99 2.38 M2.75 56.72 C17.73 40, 32.24 23.18, 49.99 2.38 M2.49 63.11 C13.6 48.26, 27.52 34.43, 55.63 1.98 M2.49 63.11 C23.19 39.74, 44.56 15.53, 55.63 1.98 M2.23 69.51 C24.34 44.49, 48.4 17.12, 60.62 2.34 M2.23 69.51 C20.94 45.99, 41.11 23.92, 60.62 2.34 M2.62 75.16 C18 58.21, 31.51 41.72, 66.26 1.95 M2.62 75.16 C24.47 51.77, 44.86 25.89, 66.26 1.95 M2.36 81.55 C15.66 65.42, 32.23 44.74, 71.25 2.31 M2.36 81.55 C30.53 50.51, 55.92 19.28, 71.25 2.31 M2.76 87.2 C29.49 57.09, 54.72 27.5, 76.89 1.91 M2.76 87.2 C23.38 64.48, 44.76 40.06, 76.89 1.91 M2.49 93.59 C29.85 65.65, 52.33 37.13, 81.88 2.27 M2.49 93.59 C22.43 72.16, 41.54 49.23, 81.88 2.27 M2.23 99.99 C29.83 68.15, 61.34 31.93, 86.86 2.63 M2.23 99.99 C19.21 80, 36.24 61.27, 86.86 2.63 M2.63 105.64 C25.87 76.44, 50.96 51.55, 92.51 2.24 M2.63 105.64 C20.2 84.75, 38.61 64.75, 92.51 2.24 M2.37 112.03 C34.91 72.75, 67.76 35.83, 97.49 2.6 M2.37 112.03 C26.22 85.29, 49.35 58.19, 97.49 2.6 M2.1 118.43 C43.96 71.02, 80.14 26.23, 103.14 2.21 M2.1 118.43 C35.51 78.57, 70.07 38.64, 103.14 2.21 M2.5 124.07 C40.34 81.63, 79.39 36.61, 108.12 2.57 M2.5 124.07 C35.85 83.06, 71.11 44.21, 108.12 2.57 M2.24 130.47 C42.57 86.86, 76.75 42.25, 113.77 2.17 M2.24 130.47 C37.09 89.45, 72.77 49.1, 113.77 2.17 M2.63 136.11 C27.1 106.84, 53.38 78.93, 118.76 2.53 M2.63 136.11 C40.28 93.32, 80.12 48.26, 118.76 2.53 M2.37 142.51 C40.43 100.22, 76.73 57.01, 124.4 2.14 M2.37 142.51 C44.09 96.43, 85.14 48.16, 124.4 2.14 M2.11 148.91 C46.64 96.9, 92.53 48.34, 129.39 2.5 M2.11 148.91 C42.3 103.02, 80.31 56.96, 129.39 2.5 M2.5 154.55 C54 92.16, 107.9 34.41, 134.37 2.86 M2.5 154.55 C28.68 122.04, 58.22 88.9, 134.37 2.86 M2.24 160.95 C33.32 124.51, 64.06 88.17, 138.7 3.97 M2.24 160.95 C42.61 113.49, 80.68 68.72, 138.7 3.97 M1.98 167.35 C39.28 122.37, 76.67 77.3, 143.03 5.09 M1.98 167.35 C43.55 120.36, 82.7 74.35, 143.03 5.09 M2.38 172.99 C32.76 140.46, 61.4 103.69, 146.71 6.96 M2.38 172.99 C41.24 130.57, 78.25 87.77, 146.71 6.96 M2.11 179.39 C48.42 127.4, 92.57 76.15, 149.73 9.58 M2.11 179.39 C42.19 132.08, 80.9 86.79, 149.73 9.58 M2.51 185.03 C60.68 115.58, 117.95 49.36, 152.09 12.96 M2.51 185.03 C58.75 120.26, 115.94 54.03, 152.09 12.96 M2.25 191.43 C31.99 155.22, 64.85 120.08, 153.8 17.09 M2.25 191.43 C46.21 141.87, 88.52 92.67, 153.8 17.09 M1.99 197.83 C62.33 125.79, 122.83 59.19, 156.82 19.72 M1.99 197.83 C59.41 131.24, 116.22 65.15, 156.82 19.72 M2.38 203.47 C37.64 162.52, 70.87 124.66, 157.21 25.36 M2.38 203.47 C60.26 139.09, 118.61 72.67, 157.21 25.36 M2.78 209.11 C59.79 143.63, 116.56 75.12, 156.95 31.76 M2.78 209.11 C54.82 148.75, 107.87 86.99, 156.95 31.76 M3.17 214.76 C53.53 159.05, 101.02 102.34, 156.69 38.16 M3.17 214.76 C60.98 150.86, 118.42 85.3, 156.69 38.16 M2.25 221.91 C38.65 183.34, 71.65 140.95, 156.43 44.55 M2.25 221.91 C58.47 158, 112.47 94.39, 156.43 44.55 M4.62 225.29 C63.95 154.04, 125.51 86.13, 156.82 50.2 M4.62 225.29 C49.25 174.37, 91.85 125.73, 156.82 50.2 M6.98 228.67 C62.08 166.05, 115.58 101.5, 156.56 56.59 M6.98 228.67 C42.99 187.65, 79.66 144.27, 156.56 56.59 M10 231.29 C53.65 179.23, 99.6 128.51, 156.95 62.24 M10 231.29 C50.21 184.27, 90.15 136.65, 156.95 62.24 M12.36 234.67 C63.98 176.23, 112.86 118.33, 156.69 68.64 M12.36 234.67 C42.53 199.84, 73.37 165.4, 156.69 68.64 M15.38 237.3 C45.21 203.41, 73.16 170.96, 156.43 75.03 M15.38 237.3 C55.75 190.33, 97.78 143.01, 156.43 75.03 M19.71 238.41 C55.93 197.03, 90.26 158.25, 156.83 80.68 M19.71 238.41 C50.31 202.33, 82 165.56, 156.83 80.68 M24.04 239.53 C76.13 180.75, 126.66 119.5, 156.56 87.07 M24.04 239.53 C55.35 204.61, 85.3 168.73, 156.56 87.07 M29.03 239.89 C67.42 195.47, 104.59 154.05, 156.3 93.47 M29.03 239.89 C59.62 204.1, 90.49 170.11, 156.3 93.47 M33.36 241 C68.19 198.65, 104.23 155.22, 156.7 99.11 M33.36 241 C78.7 187.47, 123.77 135.65, 156.7 99.11 M39 240.61 C66.97 206.79, 93.28 177.49, 156.44 105.51 M39 240.61 C79.7 192.7, 120.24 146.17, 156.44 105.51 M43.99 240.97 C74.8 203.32, 108.12 166.2, 156.83 111.16 M43.99 240.97 C84.09 194.35, 124.94 148.86, 156.83 111.16 M49.63 240.57 C83.3 199.43, 115.68 162.5, 156.57 117.55 M49.63 240.57 C74.8 211.13, 100.41 180.98, 156.57 117.55 M54.62 240.93 C76.6 214.33, 101.44 184.15, 156.31 123.95 M54.62 240.93 C94.35 194.9, 133.89 149.09, 156.31 123.95 M60.26 240.54 C93.51 201.43, 131.37 159.18, 156.7 129.59 M60.26 240.54 C96.27 202.49, 131.12 162.8, 156.7 129.59 M65.25 240.9 C99.41 200.64, 135.44 162.34, 156.44 135.99 M65.25 240.9 C89.37 212.48, 114.82 184.07, 156.44 135.99 M70.89 240.5 C99.03 207.92, 127.4 174.68, 156.84 141.64 M70.89 240.5 C99.02 208.8, 125.74 178.74, 156.84 141.64 M75.88 240.86 C98.33 214.52, 122.79 186.85, 156.57 148.03 M75.88 240.86 C102.82 208.08, 130.1 176.62, 156.57 148.03 M81.52 240.47 C98.8 220.67, 120.63 196.59, 156.31 154.43 M81.52 240.47 C103.75 214.63, 126.22 186.82, 156.31 154.43 M86.51 240.83 C102.61 221.93, 116.52 204.64, 156.71 160.07 M86.51 240.83 C109.41 215.62, 132.36 190.12, 156.71 160.07 M92.15 240.43 C115.35 212.71, 137.53 188.91, 156.45 166.47 M92.15 240.43 C108.44 220.09, 127.65 198.05, 156.45 166.47 M97.14 240.79 C119.93 212.89, 144.01 185.24, 156.84 172.11 M97.14 240.79 C114.34 221.21, 132.49 201.24, 156.84 172.11 M102.78 240.4 C123.25 219.18, 142.34 193.13, 156.58 178.51 M102.78 240.4 C121.41 218.43, 139.91 196.57, 156.58 178.51 M107.77 240.76 C127.44 219.35, 143.83 196.76, 156.32 184.91 M107.77 240.76 C123.69 223.21, 138.88 205.14, 156.32 184.91 M113.41 240.36 C128.59 223.16, 144.6 205.03, 156.71 190.55 M113.41 240.36 C121.92 229.31, 132.2 218.11, 156.71 190.55 M118.4 240.72 C128.08 230.51, 136.73 218.08, 156.45 196.95 M118.4 240.72 C126.1 231.73, 135.82 220.99, 156.45 196.95 M124.7 239.57 C134.06 228.48, 145.31 215.05, 156.85 202.59 M124.7 239.57 C136.66 227.83, 147.16 214.12, 156.85 202.59 M131 238.43 C141.16 227.44, 152.19 214.94, 157.24 208.24 M131 238.43 C136.06 231.4, 142.1 225.26, 157.24 208.24 M136.64 238.03 C143.65 228.27, 149.79 223.47, 156.32 215.39 M136.64 238.03 C142.98 230.35, 150.19 222.89, 156.32 215.39 M144.25 235.37 C148.23 230.5, 153.76 225.19, 155.4 222.54 M144.25 235.37 C147.08 232.86, 149.47 230.35, 155.4 222.54 M12.21 234.41 C12.21 234.41, 12.21 234.41, 12.21 234.41 M12.21 234.41 C12.21 234.41, 12.21 234.41, 12.21 234.41 M19.36 235.33 C13.48 231.56, 11.11 227.39, 2.76 220.89 M19.36 235.33 C13.3 229.93, 5.32 224.22, 2.76 220.89 M26.51 236.24 C19.38 230.54, 13.28 223.05, 1.61 214.59 M26.51 236.24 C16.75 229.11, 8.81 221.02, 1.61 214.59 M33.67 237.16 C24.61 231.1, 17.63 224.91, 0.46 208.29 M33.67 237.16 C25.93 230.88, 17.99 222.9, 0.46 208.29 M40.06 237.42 C27.76 227.13, 17.96 217.09, 2.33 204.62 M40.06 237.42 C29.07 228.22, 20.8 220.79, 2.33 204.62 M45.71 237.03 C32.09 224.27, 19.24 214.28, 1.93 198.98 M45.71 237.03 C36.03 228.2, 26.32 220.89, 1.93 198.98 M52.11 237.29 C42.27 227.8, 29.85 218.8, 2.29 193.99 M52.11 237.29 C39.8 225.37, 26.03 215.01, 2.29 193.99 M57.75 236.89 C44.64 227.82, 32.57 213.06, 2.65 189 M57.75 236.89 C36.9 218.87, 16.16 201.23, 2.65 189 M64.15 237.16 C48.47 225.5, 35.98 213.13, 2.26 183.36 M64.15 237.16 C50.73 225.53, 39.46 215.55, 2.26 183.36 M70.54 237.42 C51.77 220.21, 32.58 203.84, 2.62 178.37 M70.54 237.42 C49.04 219.75, 27.58 200.02, 2.62 178.37 M76.19 237.02 C60.82 223.02, 43.62 208.62, 2.23 172.73 M76.19 237.02 C49.69 214.02, 23.32 190.55, 2.23 172.73 M82.59 237.28 C50.85 210.13, 18.66 182.42, 2.59 167.74 M82.59 237.28 C51.1 209.37, 17.59 181.26, 2.59 167.74 M88.23 236.89 C62.37 216.83, 37.48 193.36, 2.19 162.1 M88.23 236.89 C61.36 214.25, 35.34 191.34, 2.19 162.1 M94.63 237.15 C60.55 207.28, 24.54 173.5, 2.55 157.11 M94.63 237.15 C60.11 207.08, 24.49 175.57, 2.55 157.11 M101.02 237.41 C61.72 202.78, 24.1 170.47, 2.16 151.47 M101.02 237.41 C77.9 216.02, 53.6 195.33, 2.16 151.47 M106.67 237.02 C78.77 211.74, 52.44 190.23, 2.52 146.48 M106.67 237.02 C65.52 201.03, 25.2 165.95, 2.52 146.48 M113.06 237.28 C89.09 216.32, 67.43 194.32, 2.12 140.84 M113.06 237.28 C78.55 206.89, 44.59 177.65, 2.12 140.84 M118.71 236.88 C77.25 197.16, 32.29 162.24, 2.48 135.85 M118.71 236.88 C86.47 209.2, 53.79 179.86, 2.48 135.85 M125.86 237.8 C99.71 214.99, 71.68 190.69, 2.09 130.21 M125.86 237.8 C97.72 214.34, 69.07 190.57, 2.09 130.21 M130.75 236.75 C84.78 200.22, 41.26 159.17, 2.45 125.22 M130.75 236.75 C89.55 200.14, 48.18 163.21, 2.45 125.22 M136.39 236.36 C87.23 192.44, 39.07 151.34, 2.81 120.23 M136.39 236.36 C100.28 205.19, 64.49 173.98, 2.81 120.23 M140.53 234.65 C91.11 191.54, 40.46 147.06, 2.41 114.59 M140.53 234.65 C96.03 193.8, 52.16 156.02, 2.41 114.59 M145.41 233.6 C91.99 187.13, 41.97 143.11, 2.77 109.6 M145.41 233.6 C100.39 196.82, 56.04 158.43, 2.77 109.6 M148.04 230.58 C94.57 183.77, 42.67 137, 2.38 103.96 M148.04 230.58 C107.14 195.43, 67.43 159.97, 2.38 103.96 M150.66 227.56 C114.98 196.8, 79.15 166.95, 2.74 98.97 M150.66 227.56 C98.67 182.19, 47.08 138.22, 2.74 98.97 M153.29 224.54 C96.66 175.69, 38.73 127.11, 2.34 93.33 M153.29 224.54 C100.96 178.11, 50.7 134.11, 2.34 93.33 M155.16 220.87 C101.98 172.06, 47.26 124.81, 2.7 88.34 M155.16 220.87 C97.09 167.51, 36.76 114.95, 2.7 88.34 M155.52 215.88 C94.97 164.33, 36.69 110.86, 2.31 82.7 M155.52 215.88 C120.14 185.09, 83.83 153.66, 2.31 82.7 M156.63 211.55 C122.91 182.93, 90.36 156.17, 2.67 77.71 M156.63 211.55 C96.93 158.96, 36.15 105.95, 2.67 77.71 M156.99 206.56 C109.61 164.15, 62.32 122.41, 2.28 72.07 M156.99 206.56 C118.83 172.67, 78.86 137.31, 2.28 72.07 M157.35 201.58 C121.72 168.57, 84.78 138.72, 2.64 67.08 M157.35 201.58 C113.95 163.47, 70.16 126.13, 2.64 67.08 M156.96 195.93 C98.05 143.04, 36.14 91.57, 3 62.1 M156.96 195.93 C117.79 159.8, 75.59 125.94, 3 62.1 M157.32 190.95 C99.83 139.17, 43.41 90.93, 2.6 56.45 M157.32 190.95 C102.43 142.47, 47.62 96, 2.6 56.45 M156.92 185.3 C96.52 134.07, 38.85 81.94, 2.96 51.47 M156.92 185.3 C111.61 145.07, 66.23 106.02, 2.96 51.47 M157.28 180.32 C105.79 136.12, 53.68 91.59, 2.57 45.82 M157.28 180.32 C116.17 142.03, 72.49 105.29, 2.57 45.82 M156.89 174.67 C122.94 145.59, 92.44 119.53, 2.93 40.84 M156.89 174.67 C102.33 128.39, 49.03 82.87, 2.93 40.84 M157.25 169.69 C107.57 126.68, 61.86 88.36, 2.53 35.19 M157.25 169.69 C113.53 132.52, 69.11 95.42, 2.53 35.19 M156.85 164.04 C110.65 122.41, 63.01 81.18, 2.89 30.21 M156.85 164.04 C96.25 112.81, 36.46 60.04, 2.89 30.21 M157.21 159.06 C115.3 122.39, 72.54 84, 0.99 23.25 M157.21 159.06 C97.86 108.55, 38.5 57.3, 0.99 23.25 M156.82 153.41 C120.44 121.62, 84.85 93.58, 2.1 18.92 M156.82 153.41 C101.39 104.8, 45.5 55.57, 2.1 18.92 M157.18 148.43 C112.34 108.9, 66.75 68.03, 3.97 15.25 M157.18 148.43 C108.32 105.98, 56 61.92, 3.97 15.25 M156.78 142.78 C113.9 106.18, 71.45 71.75, 6.6 12.23 M156.78 142.78 C101.23 95.05, 46.92 47.77, 6.6 12.23 M157.14 137.8 C126.42 113.15, 93.92 87.05, 8.47 8.55 M157.14 137.8 C114.53 101.57, 72.1 64.88, 8.47 8.55 M156.75 132.15 C113.41 94.26, 73.8 55.57, 10.34 4.88 M156.75 132.15 C115 97.39, 73.97 60.79, 10.34 4.88 M157.11 127.17 C109.79 85.26, 64.72 45.92, 14.47 3.17 M157.11 127.17 C106.36 84.05, 53.96 40.06, 14.47 3.17 M156.72 121.52 C125.01 93.16, 92.07 67.35, 18.6 1.46 M156.72 121.52 C107.92 80.05, 59.49 37.17, 18.6 1.46 M157.08 116.54 C107.65 74.4, 63.06 31.39, 23.49 0.41 M157.08 116.54 C130.29 92.79, 100.52 67.79, 23.49 0.41 M156.68 110.89 C107.56 69.02, 60.58 27.37, 29.13 0.02 M156.68 110.89 C107.22 69.79, 55.66 25.35, 29.13 0.02 M157.04 105.9 C122.22 71.94, 84.9 42.49, 33.27 -1.69 M157.04 105.9 C118.91 72.38, 80.93 39.61, 33.27 -1.69 M156.65 100.26 C116.71 62.15, 76.92 28.69, 39.67 -1.43 M156.65 100.26 C112.49 60.99, 68.14 22.03, 39.67 -1.43 M157.01 95.27 C126.61 70.14, 94.98 42.84, 45.31 -1.82 M157.01 95.27 C129.29 69.53, 101.89 45.53, 45.31 -1.82 M157.37 90.29 C125.3 63.08, 92.32 32.4, 51.71 -1.56 M157.37 90.29 C130.62 66.41, 103.27 43.24, 51.71 -1.56 M156.97 84.64 C121.68 53.39, 86.09 22.9, 58.1 -1.3 M156.97 84.64 C133.04 64.58, 109.57 43.87, 58.1 -1.3 M157.33 79.66 C124.56 50.09, 93.35 22.62, 63.75 -1.69 M157.33 79.66 C123.46 49.9, 88.92 21.53, 63.75 -1.69 M156.94 74.01 C123.37 44.25, 89.02 18.73, 70.15 -1.43 M156.94 74.01 C138.65 58.71, 120.09 41.12, 70.15 -1.43 M157.3 69.03 C134.07 46.98, 112.98 27.61, 76.54 -1.17 M157.3 69.03 C127.14 43.66, 98.16 18.01, 76.54 -1.17 M156.9 63.38 C137.5 48.84, 121.63 33.56, 82.19 -1.57 M156.9 63.38 C136.04 43.81, 112.7 26.01, 82.19 -1.57 M157.26 58.4 C139.72 42.38, 122.25 28.44, 88.58 -1.3 M157.26 58.4 C134.46 38.74, 111.45 18.73, 88.58 -1.3 M156.87 52.75 C143.54 39.79, 131.4 28.25, 94.98 -1.04 M156.87 52.75 C133.03 31.32, 109 10.62, 94.98 -1.04 M157.23 47.77 C137.31 32.47, 118 12.04, 100.63 -1.44 M157.23 47.77 C140.05 32.28, 124.5 18.54, 100.63 -1.44 M156.83 42.12 C143.66 28.44, 126.38 16.86, 107.02 -1.18 M156.83 42.12 C139.47 28.27, 122.05 12.64, 107.02 -1.18 M157.19 37.14 C138.98 23.02, 125.19 8.73, 113.42 -0.91 M157.19 37.14 C147.9 27.05, 136.86 18.12, 113.42 -0.91 M156.8 31.49 C149.48 26.46, 142.42 18.81, 119.06 -1.31 M156.8 31.49 C141.4 18.92, 127.16 5.65, 119.06 -1.31 M155.65 25.2 C146.99 20.36, 141 13.2, 125.46 -1.05 M155.65 25.2 C146.5 15.85, 136.85 9.14, 125.46 -1.05 M155.26 19.55 C150.99 14.8, 143.38 11.82, 132.61 -0.13 M155.26 19.55 C147.53 13.08, 141.11 6.61, 132.61 -0.13" stroke="#ced4da" stroke-width="0.5" fill="none"></path><path d="M32 0 M32 0 C61.23 0.86, 88.33 -1.28, 124.48 0 M124.48 0 C145.33 0.16, 156.75 11.8, 156.48 32 M156.48 32 C155.67 67.73, 155.33 102.54, 156.48 207.16 M156.48 207.16 C156.99 227.9, 144.87 239.32, 124.48 239.16 M124.48 239.16 C91.52 238.23, 57.51 238.93, 32 239.16 M32 239.16 C10.07 237.9, -0.41 227.81, 0 207.16 M0 207.16 C2.57 149.53, 0.9 93.75, 0 32 M0 32 C-0.9 11.97, 12.55 0.33, 32 0" stroke="#495057" stroke-width="1.5" fill="none" stroke-dasharray="1.5 7"></path></g><g stroke-opacity="0.7" fill-opacity="0.7" transform="translate(66.00220489501953 286.416015625) rotate(0 22.23998260498047 10)"><text x="22.23998260498047" y="0" font-family="Virgil, Segoe UI Emoji" font-size="16px" fill="#495057" text-anchor="middle" style="white-space: pre;" direction="ltr" dominant-baseline="text-before-edge">PAGE</text></g><g stroke-opacity="0.6" fill-opacity="0.6" stroke-linecap="round" transform="translate(50.578125 400.076171875) rotate(0 36.46875 44.48046875)"><path d="M18.23 0 L58.98 0.28 L65.81 2.56 L70.37 7.12 L71.8 10.26 L72.94 18.23 L72.94 70.73 L71.8 78.7 L70.37 81.84 L65.81 86.4 L62.68 87.82 L54.7 88.96 L13.96 88.68 L7.12 86.4 L2.56 81.84 L1.14 78.7 L0 70.73 L0.28 13.96 L1.14 10.26 L4.56 4.56 L10.26 1.14 L18.23 0" stroke="none" stroke-width="0" fill="#ced4da"></path><path d="M18.23 0 M18.23 0 C31.36 0, 44.49 0, 54.7 0 M54.7 0 C66.86 0, 72.94 6.08, 72.94 18.23 M72.94 18.23 C72.94 31.8, 72.94 45.37, 72.94 70.73 M72.94 70.73 C72.94 82.88, 66.86 88.96, 54.7 88.96 M54.7 88.96 C40.76 88.96, 26.82 88.96, 18.23 88.96 M18.23 88.96 C6.08 88.96, 0 82.88, 0 70.73 M0 70.73 C0 58.39, 0 46.05, 0 18.23 M0 18.23 C0 6.08, 6.08 0, 18.23 0" stroke="#495057" stroke-width="1.5" fill="none" stroke-dasharray="1.5 7"></path></g><g stroke-opacity="0.6" fill-opacity="0.6" transform="translate(69.51889038085938 434.556640625) rotate(0 17.527984619140625 10)"><text x="17.527984619140625" y="0" font-family="Virgil, Segoe UI Emoji" font-size="16px" fill="#495057" text-anchor="middle" style="white-space: pre;" direction="ltr" dominant-baseline="text-before-edge">Form</text></g><g stroke-linecap="round"><g transform="translate(132.7421875 440.57421875) rotate(0 188.34375 -92.421875)"><path d="M0 0 C62.78 -30.81, 313.91 -154.04, 376.69 -184.84" stroke="#495057" stroke-width="1.5" fill="none" stroke-dasharray="1.5 7"></path></g><g transform="translate(132.7421875 440.57421875) rotate(0 188.34375 -92.421875)"><path d="M355.9 -163.21 C360.63 -168.14, 365.36 -173.06, 376.69 -184.84" stroke="#495057" stroke-width="1.5" fill="none" stroke-dasharray="1.5 5"></path></g><g transform="translate(132.7421875 440.57421875) rotate(0 188.34375 -92.421875)"><path d="M346.86 -181.64 C353.65 -182.37, 360.44 -183.1, 376.69 -184.84" stroke="#495057" stroke-width="1.5" fill="none" stroke-dasharray="1.5 5"></path></g></g><mask></mask><g stroke-linecap="round"><g transform="translate(39.5546875 51.8984375) rotate(0 49.391890878975374 0.5360635094482262)"><path d="M-1.65 2.78 C15.46 3.22, 83.96 2.82, 100.43 2.11 M2.65 1.83 C19.79 1.53, 84.04 -1.7, 99.41 -1.89" stroke="#495057" stroke-width="2" fill="none"></path></g></g><mask></mask><g stroke-linecap="round"><g transform="translate(42.82421875 85.875) rotate(0 46.513456660658136 -0.3149774136081902)"><path d="M0.78 -2.15 C15.48 -2.43, 74.24 -3.74, 89.66 -3.47 M-2.25 2.85 C13.26 3.15, 79.46 1.03, 95.27 -0.28" stroke="#495057" stroke-width="2" fill="none"></path></g></g><mask></mask><g stroke-linecap="round"><g transform="translate(40.63671875 105.16796875) rotate(0 48.09742128401993 -1.4220358022302264)"><path d="M-0.63 0.66 C15.55 0.43, 80.64 0.94, 96.82 0.2 M4.23 -1.45 C20.13 -2.57, 79.93 -3.49, 95.05 -3.51" stroke="#495057" stroke-width="2" fill="none"></path></g></g><mask></mask><g stroke-linecap="round"><g transform="translate(37.84765625 319.46875) rotate(0 51.078482927903536 -0.21461422157744892)"><path d="M0.98 0.65 C18.15 0.35, 87.73 -1.18, 104.1 -1.98 M-1.94 -1.47 C14.97 -1.28, 85.34 1.69, 103.09 1.55" stroke="#495057" stroke-width="1" fill="none"></path></g></g><mask></mask><g stroke-linecap="round"><g transform="translate(43.1875 351.22265625) rotate(0 46.78473233662547 1.4675013373458228)"><path d="M1.93 -1.36 C17.36 -1.29, 78.91 -1.1, 94.03 -0.62 M-0.46 4.08 C14.45 4.68, 76.64 3.95, 91.72 2.75" stroke="#495057" stroke-width="1" fill="none"></path></g></g><mask></mask><g stroke-linecap="round"><g transform="translate(46.8359375 376.4296875) rotate(0 44.189427570998674 2.3701833730291924)"><path d="M-0.78 2.33 C14.41 3.44, 74.15 4.54, 89.15 4.65 M4 1.12 C19.09 1.57, 73.51 -0.51, 87.52 0.27" stroke="#495057" stroke-width="1" fill="none"></path></g></g><mask></mask></svg>