<svg version="1.1" xmlns="http://www.w3.org/2000/svg" viewBox="0 0 767.8478515625 254.1796875" width="1535.695703125" height="508.359375">
  <!-- svg-source:excalidraw -->
  
  <defs>
    <style class="style-fonts">
      @font-face {
        font-family: "Virgil";
        src: url("https://excalidraw.com/Virgil.woff2");
      }
      @font-face {
        font-family: "Cascadia";
        src: url("https://excalidraw.com/Cascadia.woff2");
      }
    </style>
  </defs>
  <rect x="0" y="0" width="767.8478515625" height="254.1796875" fill="#ffffff"></rect><g stroke-linecap="round" transform="translate(382.99628906249995 10) rotate(0 70.04296875 70.04296875)"><path d="M15.95 24.46 C15.95 24.46, 15.95 24.46, 15.95 24.46 M15.95 24.46 C15.95 24.46, 15.95 24.46, 15.95 24.46 M11.37 37.41 C15.76 28.24, 24.99 20.62, 31.6 12.05 M9.59 36.89 C15.85 29.12, 24.42 22.29, 31.93 12.86 M2.63 50.57 C17.91 33.51, 33 14.49, 42.95 4.82 M3.49 49.91 C14.09 38.25, 25.27 27.36, 41.66 6.39 M5.52 54.71 C23.53 36.89, 38.45 14.63, 48.16 3.64 M4.96 54.74 C18.1 40.03, 31.39 24.89, 48.75 5.12 M6.65 62.12 C15.01 45.03, 29 32.56, 55.59 3.36 M4.28 60.79 C18.44 47.57, 31.8 31.71, 55.34 4.32 M4 67.37 C17.15 53.89, 28.43 41.79, 62.97 1.46 M5.35 67.36 C17.19 52.6, 29.94 37.69, 60.56 2.18 M4.82 75.36 C20.56 56.72, 35.87 37.09, 68.99 1.78 M4.01 73.43 C24.01 50.8, 42.94 27.96, 66.58 1.15 M0.78 82.39 C21.94 57.09, 43.8 32.87, 72.52 -0.49 M1.54 84.23 C17.2 66.45, 32.33 48.22, 74.11 0.58 M4.15 86.03 C21.93 69.39, 39.58 48.66, 76.9 0.68 M3.23 86.85 C21.27 68.21, 37.06 48.05, 77.15 1.8 M5.92 90.29 C25.89 67.72, 49.36 41.02, 83.76 4.19 M4.84 90.93 C22.34 71.32, 39.79 53.23, 81.08 3.79 M7.95 94.99 C29.43 71.31, 52.5 45.49, 85.41 5.77 M7.2 95.74 C24.05 75.6, 42.77 54.52, 85.55 4.81 M10.12 101.32 C27.9 79.39, 49.32 54.33, 89.93 4.76 M7.65 99.32 C24.88 78.6, 43.88 58.25, 89.85 6.72 M10.09 104.05 C43.96 66.68, 76.22 27.92, 92.95 8.35 M10.2 104.31 C37.8 71.62, 67.34 38.83, 95.09 6.93 M11.03 107.81 C43.56 74.13, 75.61 37.34, 97.35 7.85 M11.7 107.89 C30.52 87.48, 48.47 65.9, 98.32 8.21 M14.05 110.59 C33.53 91.6, 52.92 67.29, 105.7 10.14 M14.55 110.88 C32.44 89.78, 51.08 67.96, 103.27 7.85 M16.63 113.46 C41.98 86.91, 68.55 59.33, 108.07 10.48 M17.56 115.1 C36.37 93.74, 53.89 72.13, 106.58 10.05 M20.35 116.86 C46.03 84.54, 75.66 55.06, 108.96 12.48 M20.04 117.26 C51.14 84.08, 80.22 48.46, 109.12 13.49 M23.99 119.34 C50.37 86.75, 81.94 51.36, 111.19 16.82 M23.28 119.32 C44.28 96.24, 65.52 73.36, 112.19 17.74 M26.59 122.53 C53.44 94.23, 76.8 65.26, 113.59 19.81 M25.99 123.16 C60.61 82.73, 93.6 43.74, 115.68 19.39 M31.22 123.43 C60.71 91.49, 90.2 52.13, 117.44 22.61 M28.41 124.38 C61.38 90.37, 90.55 53.64, 118.79 22.91 M32.72 126.62 C54.49 99.58, 80.05 75.41, 121.56 24.22 M32.49 128.26 C57.28 99.67, 83.21 70.9, 121.55 25.3 M33.46 128.54 C53.6 106.57, 74.19 85.21, 126 25.74 M35.96 129.55 C54.48 108.42, 72.86 88.1, 124.89 27.92 M39.07 133.75 C55.59 112.01, 74.35 91.55, 127.89 30.64 M38.48 132.4 C68.82 97.72, 99.8 60.81, 126.8 30.42 M43.54 133.64 C71.43 101.56, 98.81 69.67, 127.76 34.49 M43.06 134.74 C72.04 102.56, 98.38 70.57, 129.14 34.07 M48.97 135.2 C68.21 112.48, 83.79 90.27, 129.34 36.69 M46.29 134.61 C74.11 102.41, 101.66 70.7, 131.69 39.15 M53.34 136.79 C76.35 105.96, 105.71 73.1, 131.94 40.5 M52.34 135.6 C82.19 99.6, 113.58 64.93, 133 42.58 M56.87 137.85 C76.3 115.17, 92.63 94.9, 136.96 46.8 M55.84 138.13 C73.03 118.8, 88.65 99.14, 135.21 45.29 M61.81 139.21 C86.13 108.86, 114.79 73.51, 135.5 49.79 M59.95 137.45 C85.08 110.94, 108.46 82.99, 136.08 49.6 M64.21 139.25 C86.05 115.37, 108.62 91.89, 137.57 52.3 M64.49 139.38 C90.08 111.03, 114.91 81.62, 138.54 54.1 M69.6 142.23 C86.56 120.03, 104.4 99.1, 140.42 57.24 M68.13 140.3 C87.93 117.53, 105.5 96.08, 139.43 58.75 M74.14 141 C95.57 115.72, 114.07 93.78, 138.38 66.16 M73.72 139.44 C96.87 113.68, 121.26 85.89, 139.69 65.04 M81 137.03 C99.29 119.02, 117.66 97.93, 139.81 73.41 M81.24 138.57 C93.51 125.91, 103.81 112.51, 139.7 71.83 M86.16 138.38 C98.73 123.87, 110.88 109.14, 139.62 78.22 M87.81 137.59 C101.78 121.96, 115.56 106.62, 138.15 78.99 M94.12 135.97 C107.25 119.29, 121.99 105.97, 137 83.15 M91.88 138.41 C107.19 122.18, 121.04 105.88, 138.18 85.53 M99.59 137.56 C106.68 127.28, 117.13 114.39, 139.8 89.13 M99.27 136.58 C113.21 122.33, 126.23 107.29, 140.11 88.23 M113.86 124.43 C121.59 115.65, 128.62 111.13, 132.52 101.77 M115.9 123.58 C122.13 116.44, 127.96 109.06, 131.81 103.57" stroke="#fa5252" stroke-width="0.5" fill="none"></path><path d="M41.39 5.01 C49.65 0, 61.72 -0.68, 72.05 -0.15 C82.38 0.38, 94.26 3.3, 103.37 8.2 C112.49 13.1, 120.72 20.99, 126.75 29.24 C132.77 37.48, 137.71 48.06, 139.52 57.69 C141.32 67.32, 140.25 77.48, 137.56 87.02 C134.88 96.56, 130.04 106.94, 123.41 114.91 C116.79 122.88, 107.26 130.73, 97.83 134.85 C88.41 138.96, 76.76 140.02, 66.87 139.6 C56.97 139.18, 47.46 137.06, 38.49 132.31 C29.52 127.57, 19.18 119.31, 13.04 111.12 C6.89 102.93, 3.33 92.99, 1.64 83.19 C-0.04 73.39, 0.51 62.16, 2.93 52.33 C5.34 42.51, 9.49 32.17, 16.15 24.24 C22.81 16.31, 37.74 7.95, 42.89 4.75 C48.04 1.56, 46.56 3.78, 47.05 5.08 M74.08 -1.23 C83.37 -1.21, 95.41 5.53, 104.16 10.75 C112.9 15.97, 120.63 21.99, 126.52 30.08 C132.42 38.17, 137.97 49.36, 139.55 59.31 C141.12 69.27, 138.9 80.14, 135.96 89.81 C133.02 99.49, 128.51 109.53, 121.91 117.35 C115.31 125.17, 105.66 133.07, 96.36 136.73 C87.06 140.39, 76.12 140.25, 66.12 139.31 C56.11 138.38, 45.21 136.26, 36.33 131.12 C27.46 125.98, 18.64 116.82, 12.87 108.48 C7.09 100.13, 3.41 90.88, 1.69 81.05 C-0.03 71.22, -0.19 59.39, 2.54 49.5 C5.26 39.62, 10.91 29.13, 18.05 21.74 C25.19 14.35, 35.99 8.95, 45.4 5.17 C54.8 1.39, 69.61 -0.16, 74.48 -0.94 C79.35 -1.73, 74.6 -0.89, 74.61 0.46" stroke="#000000" stroke-width="1" fill="none"></path></g><g transform="translate(408.56141794548444 67.51511057243755) rotate(0 44.449981689453125 12.5)"><text x="44.449981689453125" y="0" font-family="Virgil, Segoe UI Emoji" font-size="20px" fill="#000000" text-anchor="middle" style="white-space: pre;" direction="ltr" dominant-baseline="text-before-edge">AIRMAIL</text></g><g stroke-linecap="round" transform="translate(10 38.484375) rotate(0 57.03134765624998 44.73046875)"><path d="M6.57 40.16 C6.57 40.16, 6.57 40.16, 6.57 40.16 M6.57 40.16 C6.57 40.16, 6.57 40.16, 6.57 40.16 M5 48.07 C8.35 44.45, 11.92 40.49, 22.71 27.69 M5 48.07 C8.37 43.55, 10.99 40.01, 22.71 27.69 M8.02 50.7 C20.21 36.28, 30.21 24.84, 38.85 15.23 M8.02 50.7 C20.04 36.39, 32.13 22.06, 38.85 15.23 M11.69 52.57 C26.27 37.46, 42.4 18.46, 52.37 5.77 M11.69 52.57 C22.24 40.53, 31.23 30.25, 52.37 5.77 M14.71 55.19 C29.07 37.59, 45.34 18.76, 59.32 3.87 M14.71 55.19 C29.01 36.64, 46.14 18.46, 59.32 3.87 M17.73 57.81 C33 41.51, 48.85 23.49, 63 5.74 M17.73 57.81 C28.77 44.38, 40.59 31.44, 63 5.74 M20.75 60.44 C30.74 46.48, 42.54 31.5, 66.67 7.61 M20.75 60.44 C36.2 42.78, 50.62 26.14, 66.67 7.61 M23.77 63.06 C40.94 42.51, 59.51 22.97, 69.69 10.23 M23.77 63.06 C42.95 42.53, 60.18 21.88, 69.69 10.23 M27.44 64.93 C44.86 43.96, 63.13 22.51, 73.37 12.1 M27.44 64.93 C37.46 52.58, 48.98 39.76, 73.37 12.1 M30.46 67.56 C38.05 55.58, 48.01 46.99, 76.39 14.73 M30.46 67.56 C39.58 56.37, 51.04 46.25, 76.39 14.73 M33.48 70.18 C41.92 59.63, 51.21 46.57, 79.41 17.35 M33.48 70.18 C49.88 52.03, 67.21 32.82, 79.41 17.35 M36.5 72.81 C48.17 56.63, 59.91 45.6, 82.42 19.98 M36.5 72.81 C46.63 60.53, 57.79 47.29, 82.42 19.98 M40.18 74.67 C52.67 61.38, 65.83 46.39, 85.44 22.6 M40.18 74.67 C57.66 53.85, 75.31 35.06, 85.44 22.6 M43.19 77.3 C61.96 59.14, 76.06 38.66, 89.12 24.47 M43.19 77.3 C61.7 57.07, 78.13 36.09, 89.12 24.47 M46.21 79.92 C58 66.78, 68.45 56.13, 92.14 27.09 M46.21 79.92 C62.54 62.02, 77.31 44.2, 92.14 27.09 M49.23 82.55 C65.5 65.58, 82.17 44.76, 95.16 29.72 M49.23 82.55 C64.19 64.85, 81.51 46.09, 95.16 29.72 M52.25 85.17 C68.34 66.76, 80.82 49.07, 98.18 32.34 M52.25 85.17 C65.44 69.25, 80.07 55.38, 98.18 32.34 M56.58 86.29 C68.13 74.9, 80.34 61.08, 101.19 34.97 M56.58 86.29 C73.74 64.58, 91.78 44.49, 101.19 34.97 M60.26 88.16 C70.31 77.44, 82.98 60.93, 104.21 37.59 M60.26 88.16 C70.77 76.78, 79.61 64.67, 104.21 37.59 M66.56 87.01 C73.91 75.94, 85.14 68.1, 107.23 40.21 M66.56 87.01 C81.6 68.55, 99.22 50.09, 107.23 40.21 M83.35 73.78 C89.03 64.48, 98.16 57.12, 110.25 42.84 M83.35 73.78 C92.18 63.51, 102.39 52.14, 110.25 42.84" stroke="#ced4da" stroke-width="0.5" fill="none"></path><path d="M72.5 11.25 M72.5 11.25 C78.23 16.69, 84.48 20.96, 99.56 33.75 M72.5 11.25 C81.48 19.03, 91.16 27.33, 99.56 33.75 M99.56 33.75 C114 46.07, 113.75 45.19, 99.56 56.25 M99.56 33.75 C113.16 43.24, 113.95 43.68, 99.56 56.25 M99.56 56.25 C95.19 62.68, 87.77 66.31, 72.5 78.21 M99.56 56.25 C94.23 61.52, 89.59 65.5, 72.5 78.21 M72.5 78.21 C56.1 89.9, 57.62 88.67, 43.5 78.21 M72.5 78.21 C59.82 89.18, 56.56 88.04, 43.5 78.21 M43.5 78.21 C33.78 70.83, 22.98 63.78, 14.5 56.25 M43.5 78.21 C34.93 72.59, 27.83 65.44, 14.5 56.25 M14.5 56.25 C1.73 46.86, -0.91 43.14, 14.5 33.75 M14.5 56.25 C-1.14 44.68, -1.28 44.76, 14.5 33.75 M14.5 33.75 C20.13 27.81, 28.68 21.89, 43.5 11.25 M14.5 33.75 C22.54 27.65, 32.27 20.22, 43.5 11.25 M43.5 11.25 C58.14 1.82, 58.22 -1.23, 72.5 11.25 M43.5 11.25 C58.22 -0.31, 59.54 1.28, 72.5 11.25" stroke="#000000" stroke-width="1" fill="none"></path></g><g transform="translate(43.60517425537114 76.3346840018657) rotate(0 23.410499572753906 7.014925373134332)"><text x="23.410499572753906" y="0" font-family="Virgil, Segoe UI Emoji" font-size="11.223880597014919px" fill="#000000" text-anchor="middle" style="white-space: pre;" direction="ltr" dominant-baseline="text-before-edge">Frontend</text></g><g stroke-linecap="round"><g transform="translate(124.94085094660659 83.69321879354504) rotate(0 128.07457375502003 -1.1464112648251898)"><path d="M-0.87 0.68 C42.09 0.63, 214.2 -0.63, 257.02 -1.19 M0.87 -0.01 C43.77 -0.33, 213.93 -2.67, 256.27 -2.97" stroke="#000000" stroke-width="1" fill="none"></path></g><g transform="translate(124.94085094660659 83.69321879354504) rotate(0 128.07457375502003 -1.1464112648251898)"><path d="M229.33 8.22 C236.02 4.29, 240.19 3.14, 258.12 -2.08 M228.31 8.5 C234.7 5.79, 239.92 2.51, 256.37 -3.59" stroke="#000000" stroke-width="1" fill="none"></path></g><g transform="translate(124.94085094660659 83.69321879354504) rotate(0 128.07457375502003 -1.1464112648251898)"><path d="M229.11 -12.3 C235.69 -11.37, 239.92 -7.66, 258.12 -2.08 M228.08 -12.02 C234.43 -10.57, 239.69 -9.69, 256.37 -3.59" stroke="#000000" stroke-width="1" fill="none"></path></g></g><mask></mask><g transform="translate(214.26582031249995 56.91015625) rotate(0 20.89598846435547 10)"><text x="0" y="0" font-family="Virgil, Segoe UI Emoji" font-size="16px" fill="#000000" text-anchor="start" style="white-space: pre;" direction="ltr" dominant-baseline="text-before-edge">JSON</text></g><g transform="translate(128.50800781249995 89.10546875) rotate(0 109.80792236328125 10)"><text x="0" y="0" font-family="Virgil, Segoe UI Emoji" font-size="16px" fill="#000000" text-anchor="start" style="white-space: pre;" direction="ltr" dominant-baseline="text-before-edge">X-WWW-FORM-URLENCODED</text></g><g stroke-linecap="round" transform="translate(385.30097656249995 210.59765625) rotate(0 69.37109375 16.791015625)"><path d="M2.23 1.94 C2.23 1.94, 2.23 1.94, 2.23 1.94 M2.23 1.94 C2.23 1.94, 2.23 1.94, 2.23 1.94 M1.32 9.1 C5.32 6.35, 8.49 2.05, 9.19 0.04 M1.32 9.1 C3.93 5.59, 7.88 1.97, 9.19 0.04 M1.06 15.49 C5.55 12.74, 7.71 8.48, 14.18 0.4 M1.06 15.49 C6.04 9.51, 9.47 5.06, 14.18 0.4 M1.45 21.14 C7.31 13.49, 16.26 7.55, 19.16 0.76 M1.45 21.14 C6.8 15.81, 12.55 8.51, 19.16 0.76 M1.84 26.78 C7.47 19.18, 11.36 13.83, 24.81 0.36 M1.84 26.78 C7.07 20, 11.99 15.64, 24.81 0.36 M3.55 30.91 C8.87 22.48, 17.7 16.78, 29.79 0.72 M3.55 30.91 C10.66 23.08, 16.78 14.96, 29.79 0.72 M5.91 34.29 C12.23 26.3, 18.72 20.75, 35.44 0.33 M5.91 34.29 C15.09 23.33, 23.08 13.59, 35.44 0.33 M11.56 33.9 C17.76 28.58, 25.01 20.82, 40.42 0.69 M11.56 33.9 C18.74 26.21, 26.84 17.09, 40.42 0.69 M16.54 34.26 C26.35 19.5, 41.14 10.11, 46.07 0.3 M16.54 34.26 C26.15 24.64, 33.03 14.38, 46.07 0.3 M21.53 34.62 C31.62 23.27, 39.85 11.26, 51.05 0.66 M21.53 34.62 C28.59 27.01, 35.89 18.76, 51.05 0.66 M27.17 34.22 C33.87 26.01, 43.57 14.93, 56.7 0.26 M27.17 34.22 C34.35 25.6, 39.7 19.07, 56.7 0.26 M32.16 34.58 C42.62 24.2, 52.37 10.05, 61.68 0.62 M32.16 34.58 C37.37 27.11, 44.94 20.96, 61.68 0.62 M37.8 34.19 C46.13 24.67, 51.62 19.3, 66.67 0.98 M37.8 34.19 C46.17 24.84, 53.13 17.58, 66.67 0.98 M42.79 34.55 C50.6 25.52, 63.29 15.05, 72.31 0.59 M42.79 34.55 C52.81 22.33, 64.93 11.1, 72.31 0.59 M48.43 34.15 C54.54 28.23, 59.12 18.84, 77.3 0.95 M48.43 34.15 C56.81 25.61, 64.32 17.37, 77.3 0.95 M53.42 34.51 C63.25 25.14, 72.53 12.64, 82.94 0.55 M53.42 34.51 C62.71 23.73, 74.51 10.33, 82.94 0.55 M59.06 34.12 C68.61 26.47, 74.73 16.73, 87.93 0.91 M59.06 34.12 C65.69 26.83, 71.54 20.15, 87.93 0.91 M64.05 34.48 C75.07 23.01, 86.25 7.94, 93.57 0.52 M64.05 34.48 C74.78 22.77, 85.51 10.6, 93.57 0.52 M69.69 34.08 C79.68 23.93, 86.84 13.97, 98.56 0.88 M69.69 34.08 C75.72 26.44, 82.06 18.48, 98.56 0.88 M74.68 34.44 C85.41 23.87, 97.02 10.22, 104.2 0.48 M74.68 34.44 C85.62 23.54, 94.39 12.03, 104.2 0.48 M79.67 34.8 C85.39 26.59, 93.72 17.45, 109.19 0.84 M79.67 34.8 C88.2 24.17, 97.46 13.2, 109.19 0.84 M85.31 34.41 C91.45 27.92, 100.4 18.27, 114.18 1.2 M85.31 34.41 C95.02 23.49, 104.05 14.33, 114.18 1.2 M90.3 34.77 C97.83 25.11, 106.68 18.59, 119.82 0.81 M90.3 34.77 C98.15 25.84, 104.21 19.36, 119.82 0.81 M95.94 34.38 C100.86 27.13, 108.31 19.95, 124.81 1.17 M95.94 34.38 C102.23 25.76, 109.18 18.86, 124.81 1.17 M100.93 34.74 C106.79 26.16, 111.01 22.28, 130.45 0.77 M100.93 34.74 C107.57 25.43, 115.56 18.02, 130.45 0.77 M106.57 34.34 C114.28 25.24, 122.62 18.92, 135.44 1.13 M106.57 34.34 C117.6 22.82, 126.06 10.48, 135.44 1.13 M111.56 34.7 C118.74 27.16, 126.76 16.56, 137.8 4.51 M111.56 34.7 C119.54 23.96, 128.29 16.21, 137.8 4.51 M117.2 34.31 C126.24 24.57, 133.07 15.76, 140.82 7.14 M117.2 34.31 C123.76 26.86, 130.37 19.87, 140.82 7.14 M122.19 34.67 C129.45 27, 135.28 20.75, 141.22 12.78 M122.19 34.67 C129.61 26.08, 135.72 18.89, 141.22 12.78 M127.18 35.03 C133.16 30.53, 136.34 24.92, 140.95 19.18 M127.18 35.03 C130.97 30.62, 135.16 25.17, 140.95 19.18 M134.13 33.12 C135.27 30.83, 137.33 28.51, 140.69 25.58 M134.13 33.12 C136.51 29.82, 139.39 27.67, 140.69 25.58 M4.53 32.89 C4.53 32.89, 4.53 32.89, 4.53 32.89 M4.53 32.89 C4.53 32.89, 4.53 32.89, 4.53 32.89 M10.93 33.15 C8.65 31.1, 5.63 28.26, 2.63 25.94 M10.93 33.15 C8.5 30.65, 5.65 28.55, 2.63 25.94 M17.33 33.42 C13.62 30.23, 10.55 27.01, 2.99 20.95 M17.33 33.42 C11.64 28.6, 7.33 23.36, 2.99 20.95 M22.97 33.02 C17.89 26.23, 7.43 19.62, 2.59 15.31 M22.97 33.02 C17.99 28.79, 10.97 24.06, 2.59 15.31 M29.37 33.28 C17.19 24.45, 7.39 13.23, 0.69 8.35 M29.37 33.28 C17.99 23.01, 6.11 13.63, 0.69 8.35 M35.01 32.89 C23.66 22.6, 14.35 16.06, 1.8 4.02 M35.01 32.89 C23.41 23.49, 11.24 13.23, 1.8 4.02 M41.41 33.15 C25 19.45, 10.28 8.14, 3.67 0.35 M41.41 33.15 C28.95 20.8, 15.04 9.18, 3.67 0.35 M47.81 33.41 C35.83 23.02, 28.64 16.96, 8.56 -0.7 M47.81 33.41 C36.15 24.74, 25.6 13.54, 8.56 -0.7 M53.45 33.02 C39.22 22.27, 29.76 11.21, 14.96 -0.44 M53.45 33.02 C39.47 21.75, 27.23 10.99, 14.96 -0.44 M59.85 33.28 C45.44 23.43, 33.6 11.44, 21.36 -0.18 M59.85 33.28 C49.56 23.97, 37.94 14.69, 21.36 -0.18 M66.25 33.54 C58.23 25.83, 50.59 18.65, 27 -0.58 M66.25 33.54 C51.11 20.66, 36.44 7.4, 27 -0.58 M71.89 33.14 C56.82 20.26, 41.09 7.4, 33.4 -0.32 M71.89 33.14 C61.58 25.17, 51.69 16.92, 33.4 -0.32 M78.29 33.41 C69.14 24.63, 58.63 13.04, 39.8 -0.05 M78.29 33.41 C69.28 25.93, 59.02 17.18, 39.8 -0.05 M84.68 33.67 C75.15 27.22, 66.7 20.54, 45.44 -0.45 M84.68 33.67 C74.61 24.61, 62.71 15.04, 45.44 -0.45 M90.33 33.27 C78.73 22.4, 66.81 15.64, 51.84 -0.19 M90.33 33.27 C76.98 22.36, 63.78 10.17, 51.84 -0.19 M96.73 33.53 C83.89 25.11, 74.16 14.4, 57.48 -0.58 M96.73 33.53 C84.2 22.1, 73.49 12.4, 57.48 -0.58 M102.37 33.14 C93.36 26.76, 85.31 18.06, 63.88 -0.32 M102.37 33.14 C91.47 22.54, 78.87 12.51, 63.88 -0.32 M108.77 33.4 C102.15 27.6, 94.24 20.67, 70.28 -0.06 M108.77 33.4 C100.77 26.71, 92.23 18.07, 70.28 -0.06 M115.16 33.66 C100.32 20.38, 86.17 9.86, 75.92 -0.45 M115.16 33.66 C99.71 21.31, 85.9 8.02, 75.92 -0.45 M120.81 33.27 C107.51 23.72, 93.46 11.74, 82.32 -0.19 M120.81 33.27 C112.46 25.04, 102 17.5, 82.32 -0.19 M127.21 33.53 C114.61 20.66, 101.74 11.67, 88.72 0.07 M127.21 33.53 C111.93 20.68, 95.41 6.8, 88.72 0.07 M131.34 31.82 C119.98 22.67, 113.42 16.47, 94.36 -0.32 M131.34 31.82 C121.68 22, 110.11 12.86, 94.36 -0.32 M136.23 30.77 C121.79 17.27, 108.3 5.8, 100.76 -0.06 M136.23 30.77 C124.78 20.59, 115.02 12.23, 100.76 -0.06 M138.85 27.75 C128.48 18.57, 118.88 10.84, 107.15 0.2 M138.85 27.75 C126.26 16.75, 113.49 5.24, 107.15 0.2 M139.21 22.77 C127.56 14.06, 119.85 3.96, 112.8 -0.2 M139.21 22.77 C130.16 15.08, 120.94 6.52, 112.8 -0.2 M138.82 17.12 C133.78 13.23, 128.66 9.84, 119.19 0.07 M138.82 17.12 C131.43 10.96, 125.47 6.09, 119.19 0.07 M139.18 12.14 C136.5 7.21, 132.11 5.52, 125.59 0.33 M139.18 12.14 C135.41 8.93, 131.18 5.12, 125.59 0.33 M138.78 6.49 C136.97 4.11, 132.8 2.84, 131.24 -0.07 M138.78 6.49 C135.88 4.15, 132.4 0.89, 131.24 -0.07" stroke="#228be6" stroke-width="0.5" fill="none"></path><path d="M8.4 0 M8.4 0 C40.79 -1.43, 71.59 -2.62, 130.35 0 M8.4 0 C37.84 0.19, 65.2 1.04, 130.35 0 M130.35 0 C136.64 -1.86, 137.07 2.12, 138.74 8.4 M130.35 0 C134.87 0, 139.51 4.09, 138.74 8.4 M138.74 8.4 C139.03 14.71, 140.25 20.83, 138.74 25.19 M138.74 8.4 C138.67 14.89, 139.06 20.73, 138.74 25.19 M138.74 25.19 C136.91 29.85, 137.81 33.61, 130.35 33.58 M138.74 25.19 C139.77 31.54, 135.09 31.92, 130.35 33.58 M130.35 33.58 C86.89 31.54, 46.4 34.22, 8.4 33.58 M130.35 33.58 C84.48 32.75, 37.93 32.37, 8.4 33.58 M8.4 33.58 C2.09 35.08, 0.12 32.58, 0 25.19 M8.4 33.58 C1.56 32.63, 0.8 32.03, 0 25.19 M0 25.19 C1.45 22.82, -1.4 18.51, 0 8.4 M0 25.19 C0.63 17.84, 0.78 12.09, 0 8.4 M0 8.4 C0.32 4.37, 1.95 -1.15, 8.4 0 M0 8.4 C-0.86 4.6, 4.38 0.36, 8.4 0" stroke="#000000" stroke-width="1" fill="none"></path></g><g transform="translate(426.7520797729492 217.388671875) rotate(0 27.91999053955078 10)"><text x="27.91999053955078" y="0" font-family="Virgil, Segoe UI Emoji" font-size="16px" fill="#000000" text-anchor="middle" style="white-space: pre;" direction="ltr" dominant-baseline="text-before-edge">STORE</text></g><g stroke-linecap="round"><g transform="translate(455.9362249474275 153.42214599945441) rotate(0 -0.07214759968593398 25.65165761213356)"><path d="M0.44 -0.02 C0.23 8.68, -0.26 42.78, -0.58 51.32" stroke="#000000" stroke-width="1.5" fill="none" stroke-dasharray="8 9"></path></g><g transform="translate(455.9362249474275 153.42214599945441) rotate(0 -0.07214759968593398 25.65165761213356)"><path d="M-8.69 28.92 C-4.9 35.88, -2.16 45.14, -1.77 53.01" stroke="#000000" stroke-width="1.5" fill="none"></path></g><g transform="translate(455.9362249474275 153.42214599945441) rotate(0 -0.07214759968593398 25.65165761213356)"><path d="M8.64 29.34 C6.27 36.22, 2.84 45.32, -1.77 53.01" stroke="#000000" stroke-width="1.5" fill="none"></path></g></g><mask></mask><g stroke-linecap="round" transform="translate(625.8478515625 45.9609375) rotate(0 66 15)"><path d="M2 1.74 C2 1.74, 2 1.74, 2 1.74 M2 1.74 C2 1.74, 2 1.74, 2 1.74 M1.08 8.89 C2.25 6.08, 5.76 4.9, 8.3 0.59 M1.08 8.89 C4.07 6.08, 7.02 2.56, 8.3 0.59 M1.47 14.53 C5.02 11.89, 6.45 8.89, 13.28 0.95 M1.47 14.53 C4.96 10.47, 8.35 7.8, 13.28 0.95 M1.87 20.17 C5.09 14.61, 10.08 8.67, 18.93 0.55 M1.87 20.17 C6.12 15.63, 9.58 12.38, 18.93 0.55 M1.61 26.57 C9.76 17.83, 16.7 9, 23.91 0.91 M1.61 26.57 C8.54 17.46, 15.04 9.12, 23.91 0.91 M3.97 29.95 C13.24 21.74, 19.24 11.78, 29.56 0.52 M3.97 29.95 C10.53 22.87, 16.8 15.62, 29.56 0.52 M9.61 29.56 C14.54 24.73, 22.92 16.49, 34.54 0.88 M9.61 29.56 C18.38 20.53, 27.25 10.37, 34.54 0.88 M14.6 29.92 C24.09 20.07, 32.16 9.07, 40.19 0.48 M14.6 29.92 C22.5 21.09, 29.86 11.15, 40.19 0.48 M20.24 29.52 C27.98 20.98, 35.39 13.25, 45.17 0.84 M20.24 29.52 C24.67 23.47, 31.73 16.65, 45.17 0.84 M25.23 29.88 C29.52 22.44, 36.54 14.62, 50.82 0.45 M25.23 29.88 C32.48 21.58, 39.3 14.17, 50.82 0.45 M30.87 29.49 C37.22 24.14, 39.4 16.9, 55.8 0.81 M30.87 29.49 C38.95 18.18, 49.41 8.35, 55.8 0.81 M35.86 29.85 C41.07 21.05, 47.07 13.44, 60.79 1.17 M35.86 29.85 C41.17 23.69, 46.07 16.86, 60.79 1.17 M41.5 29.45 C48.58 21.11, 57.9 9.15, 66.43 0.77 M41.5 29.45 C48.44 20.69, 56.09 12.19, 66.43 0.77 M46.49 29.81 C52.92 20.53, 58.86 14.78, 71.42 1.13 M46.49 29.81 C56.54 19.3, 65.7 8.07, 71.42 1.13 M52.13 29.42 C58.58 19.44, 67.65 11.84, 77.06 0.74 M52.13 29.42 C59.58 22.3, 64.68 13.56, 77.06 0.74 M57.12 29.78 C66 20.46, 73.91 10, 82.05 1.1 M57.12 29.78 C66.07 20.78, 73.76 11.29, 82.05 1.1 M62.11 30.14 C71.22 20.72, 79.59 11.93, 87.69 0.7 M62.11 30.14 C67.73 22.85, 74.17 16.27, 87.69 0.7 M67.75 29.74 C71.7 25.15, 79.37 17.34, 92.68 1.06 M67.75 29.74 C76.62 20.1, 85.3 10.77, 92.68 1.06 M72.74 30.1 C77.58 20.44, 85.63 13.27, 98.32 0.67 M72.74 30.1 C80.64 21.41, 88.48 12.45, 98.32 0.67 M78.38 29.71 C87.65 18.44, 95.13 9.88, 103.31 1.03 M78.38 29.71 C86.77 18.17, 98.07 7.77, 103.31 1.03 M83.37 30.07 C90.41 21.24, 100.4 9.12, 108.3 1.39 M83.37 30.07 C90.49 23.55, 95.09 14.65, 108.3 1.39 M89.01 29.67 C96.51 20.3, 105.72 12.32, 113.94 1 M89.01 29.67 C99.23 19.14, 107.95 7.12, 113.94 1 M94 30.03 C98.37 23.91, 108.24 14.58, 118.93 1.36 M94 30.03 C99.92 24.24, 104.45 18.99, 118.93 1.36 M99.64 29.64 C107.79 23.73, 112.95 13.72, 124.57 0.96 M99.64 29.64 C108.67 18.62, 119.69 7.7, 124.57 0.96 M104.63 30 C111.67 22.54, 120.81 14.2, 128.9 2.08 M104.63 30 C110.38 23.54, 115.01 17.94, 128.9 2.08 M109.61 30.36 C115.53 21.16, 125.87 12.12, 131.92 4.7 M109.61 30.36 C116.92 21.22, 124.36 12.74, 131.92 4.7 M115.26 29.97 C120.43 23.65, 129.38 15.15, 132.31 10.34 M115.26 29.97 C118.79 26.01, 123.52 20.11, 132.31 10.34 M120.24 30.33 C123.92 25.6, 125.38 22.17, 132.05 16.74 M120.24 30.33 C123.6 26.58, 127.43 23.28, 132.05 16.74 M125.23 30.69 C126.78 29.27, 129.05 25.16, 131.79 23.14 M125.23 30.69 C127.82 27.64, 129.96 25.36, 131.79 23.14 M4.55 29.82 C4.55 29.82, 4.55 29.82, 4.55 29.82 M4.55 29.82 C4.55 29.82, 4.55 29.82, 4.55 29.82 M10.2 29.43 C7.96 26.87, 3.67 24.45, 2.65 22.87 M10.2 29.43 C7.2 27.47, 4.98 24.9, 2.65 22.87 M16.59 29.69 C13.46 26.3, 8.79 22.28, 3.01 17.88 M16.59 29.69 C12.21 26.33, 8.7 23.66, 3.01 17.88 M22.24 29.29 C15.7 24.54, 14.94 21.39, 2.61 12.24 M22.24 29.29 C16.06 24.42, 9.75 18.62, 2.61 12.24 M28.63 29.55 C19.78 21.28, 8.23 12.4, 1.46 5.94 M28.63 29.55 C21.54 22.44, 14.93 16.94, 1.46 5.94 M35.03 29.82 C26.57 22.63, 21.08 16.69, 2.58 1.61 M35.03 29.82 C22.74 19.96, 11.58 9.31, 2.58 1.61 M40.67 29.42 C29.18 19.67, 17.91 9.43, 6.71 -0.1 M40.67 29.42 C30.32 20.39, 19.64 11.29, 6.71 -0.1 M47.07 29.68 C32.77 16.11, 20.81 6.05, 10.09 -2.46 M47.07 29.68 C33.58 16.75, 19.79 6.21, 10.09 -2.46 M53.47 29.94 C39.11 17.06, 26.13 4.38, 15.73 -2.86 M53.47 29.94 C42.75 20.42, 31.56 11.91, 15.73 -2.86 M59.11 29.55 C49.52 22.54, 38.67 14.75, 22.13 -2.6 M59.11 29.55 C49.72 21.39, 41.67 14.36, 22.13 -2.6 M65.51 29.81 C50.8 16.17, 38.71 4.92, 28.53 -2.34 M65.51 29.81 C52.21 17.82, 39.54 7.17, 28.53 -2.34 M71.91 30.07 C64.47 23.52, 54.43 14.74, 34.17 -2.73 M71.91 30.07 C57.52 17.96, 45.6 6.82, 34.17 -2.73 M77.55 29.68 C64.6 15.53, 50.64 4.78, 40.57 -2.47 M77.55 29.68 C67.57 21.59, 57.4 12.55, 40.57 -2.47 M83.95 29.94 C70.39 16.66, 54.42 6.2, 46.21 -2.86 M83.95 29.94 C75.4 22.49, 67.14 15.09, 46.21 -2.86 M89.59 29.55 C77.51 18.34, 64.47 4.96, 52.61 -2.6 M89.59 29.55 C74.7 16.09, 61.08 3.3, 52.61 -2.6 M95.99 29.81 C85.33 19.63, 77.37 13.43, 59.01 -2.34 M95.99 29.81 C84.41 20.51, 75.57 11.87, 59.01 -2.34 M102.39 30.07 C90.96 21.73, 83.39 12.52, 64.65 -2.73 M102.39 30.07 C92.15 19.92, 81.37 10.85, 64.65 -2.73 M108.03 29.67 C93.91 17.32, 79.16 7.45, 71.05 -2.47 M108.03 29.67 C98.54 20.94, 88.35 13.19, 71.05 -2.47 M114.43 29.93 C105.4 22.51, 99.74 17.1, 77.45 -2.21 M114.43 29.93 C107.16 23.5, 98.07 16.16, 77.45 -2.21 M120.83 30.2 C107.77 16.96, 93.68 4.57, 83.09 -2.61 M120.83 30.2 C111.56 22.76, 103.19 13.05, 83.09 -2.61 M125.72 29.15 C112.66 18.16, 100.96 4.81, 89.49 -2.35 M125.72 29.15 C114.24 17.89, 102.16 8.45, 89.49 -2.35 M130.6 28.1 C118.96 16.86, 106.81 5.36, 95.89 -2.08 M130.6 28.1 C123.36 22.38, 115.92 16.44, 95.89 -2.08 M132.47 24.42 C122.09 13.69, 109.54 4.48, 101.53 -2.48 M132.47 24.42 C121.68 14.93, 112.13 6.9, 101.53 -2.48 M132.83 19.43 C126.75 11.58, 119.2 6.25, 107.93 -2.22 M132.83 19.43 C127.15 13.84, 121.33 8.14, 107.93 -2.22 M132.44 13.79 C125.72 6.99, 119.53 0.69, 114.33 -1.96 M132.44 13.79 C127.94 9.84, 122.64 5.9, 114.33 -1.96 M132.8 8.8 C130.37 7.06, 126.07 2.09, 119.97 -2.35 M132.8 8.8 C127.87 4.12, 122.11 -0.55, 119.97 -2.35" stroke="#fab005" stroke-width="0.5" fill="none"></path><path d="M7.5 0 M7.5 0 C48.85 1.99, 91.32 -0.33, 124.5 0 M7.5 0 C53.32 1.21, 99.12 1.05, 124.5 0 M124.5 0 C129.29 -1.5, 132 3.41, 132 7.5 M124.5 0 C129.06 0.65, 130.81 4.26, 132 7.5 M132 7.5 C133.28 12.73, 132.41 16.47, 132 22.5 M132 7.5 C132.65 11.41, 131.43 13.84, 132 22.5 M132 22.5 C133.2 27.02, 129.8 31.07, 124.5 30 M132 22.5 C129.95 26.06, 129.22 28.84, 124.5 30 M124.5 30 C88.35 29.17, 48.31 31.04, 7.5 30 M124.5 30 C85.09 28.41, 46.05 29.92, 7.5 30 M7.5 30 C3.95 30.09, 1.23 25.75, 0 22.5 M7.5 30 C0.65 29.87, 1.15 26.41, 0 22.5 M0 22.5 C1.32 17.24, -1.05 12.4, 0 7.5 M0 22.5 C-0.34 18.9, 0.6 15.6, 0 7.5 M0 7.5 C0.02 2.49, 2.82 -1.95, 7.5 0 M0 7.5 C-2.3 3.8, 1.46 0.21, 7.5 0" stroke="#000000" stroke-width="1" fill="none"></path></g><g transform="translate(630.8478515625 50.9609375) rotate(0 60.80797576904297 10)"><text x="0" y="0" font-family="Virgil, Segoe UI Emoji" font-size="16px" fill="#000000" text-anchor="start" style="white-space: pre;" direction="ltr" dominant-baseline="text-before-edge">CUSTOM SMTP</text></g><g stroke-linecap="round" transform="translate(643.6603515625 116.59375) rotate(0.15565151020811396 44 15)"><path d="M2 1.74 C2 1.74, 2 1.74, 2 1.74 M2 1.74 C2 1.74, 2 1.74, 2 1.74 M1.08 8.89 C2.84 6.27, 6.82 3.61, 8.3 0.59 M1.08 8.89 C3.08 6.36, 6.08 3.17, 8.3 0.59 M1.47 14.53 C5.1 10.7, 8.65 6.56, 13.28 0.95 M1.47 14.53 C5.51 9.23, 9.55 4.72, 13.28 0.95 M1.87 20.17 C7.16 16.65, 9.93 11.36, 18.93 0.55 M1.87 20.17 C8.31 12.45, 15.4 4.14, 18.93 0.55 M1.61 26.57 C9.82 16.61, 16.45 5.7, 23.91 0.91 M1.61 26.57 C5.25 21.82, 11.33 15.4, 23.91 0.91 M3.97 29.95 C12.05 21.69, 19.64 13.12, 29.56 0.52 M3.97 29.95 C9.33 22.37, 17.41 16.45, 29.56 0.52 M9.61 29.56 C16.13 20.47, 27.35 11.5, 34.54 0.88 M9.61 29.56 C18.66 20.34, 26.54 10.32, 34.54 0.88 M14.6 29.92 C22.9 21.81, 29.71 12.37, 40.19 0.48 M14.6 29.92 C22.93 20.75, 30.81 11.38, 40.19 0.48 M20.24 29.52 C28.71 16.56, 39.71 8.72, 45.17 0.84 M20.24 29.52 C27.49 20.95, 33.66 13.76, 45.17 0.84 M25.23 29.88 C32.51 24.49, 35.64 18.25, 50.16 1.2 M25.23 29.88 C33.87 20.38, 43.31 8.8, 50.16 1.2 M30.87 29.49 C36.64 20.5, 41.36 16.11, 55.8 0.81 M30.87 29.49 C38.35 21.38, 43.55 13.63, 55.8 0.81 M35.86 29.85 C41.47 23.51, 46.56 16.64, 60.79 1.17 M35.86 29.85 C41.53 22.64, 47.72 16.58, 60.79 1.17 M41.5 29.45 C50.06 21.03, 54.65 13.97, 66.43 0.77 M41.5 29.45 C49.9 20.96, 55.58 12.15, 66.43 0.77 M46.49 29.81 C55.43 21.45, 63.71 11.37, 71.42 1.13 M46.49 29.81 C53.74 20.13, 61.6 11.71, 71.42 1.13 M51.48 30.17 C60.54 22.58, 69.17 10.08, 77.06 0.74 M51.48 30.17 C57.6 23.28, 64.07 15.94, 77.06 0.74 M57.12 29.78 C62.09 25.4, 68.13 18.51, 82.05 1.1 M57.12 29.78 C65.69 21.19, 73.06 12.2, 82.05 1.1 M62.11 30.14 C71.3 21.23, 76.62 13.6, 86.38 2.21 M62.11 30.14 C70.36 19.94, 79.83 11.51, 86.38 2.21 M67.75 29.74 C71.94 24.34, 78.06 18.89, 88.74 5.59 M67.75 29.74 C73.88 22.13, 78.4 16.16, 88.74 5.59 M72.74 30.1 C78.01 25.92, 81.59 21.48, 89.14 11.24 M72.74 30.1 C78.56 24.5, 82.36 18.02, 89.14 11.24 M78.38 29.71 C82.76 24.52, 83.92 23.82, 88.88 17.63 M78.38 29.71 C81.19 25.46, 85.04 22.38, 88.88 17.63 M82.05 31.58 C84.12 30.55, 85.96 27.15, 88.62 24.03 M82.05 31.58 C83.1 30.02, 84.53 28.88, 88.62 24.03 M4.55 29.82 C4.55 29.82, 4.55 29.82, 4.55 29.82 M4.55 29.82 C4.55 29.82, 4.55 29.82, 4.55 29.82 M10.2 29.43 C7.28 28.59, 6.21 26.12, 2.65 22.87 M10.2 29.43 C7.18 27.29, 4.85 24.49, 2.65 22.87 M16.59 29.69 C13.53 26.15, 10.48 25.6, 3.01 17.88 M16.59 29.69 C12.29 25.12, 7.37 21.74, 3.01 17.88 M22.99 29.95 C15.58 24.9, 8.09 17.1, 2.61 12.24 M22.99 29.95 C15.24 22.99, 9.08 18.54, 2.61 12.24 M28.63 29.55 C22.23 23.24, 14.25 17.44, 1.46 5.94 M28.63 29.55 C22.35 22.61, 15.01 17.91, 1.46 5.94 M35.03 29.82 C25.23 20.3, 18.47 13.52, 2.58 1.61 M35.03 29.82 C25.85 22.47, 17.38 14.06, 2.58 1.61 M41.43 30.08 C33.59 22.66, 24.39 16.08, 6.71 -0.1 M41.43 30.08 C27.64 17.99, 15.53 6.58, 6.71 -0.1 M47.07 29.68 C39.33 23.38, 29.46 15.71, 10.09 -2.46 M47.07 29.68 C35.43 20.84, 25.17 9.51, 10.09 -2.46 M53.47 29.94 C37.75 15.74, 25.02 3.99, 15.73 -2.86 M53.47 29.94 C43.49 21.95, 32.21 11.51, 15.73 -2.86 M59.11 29.55 C49.27 18.02, 37.18 9.66, 22.13 -2.6 M59.11 29.55 C48 20.63, 37.71 10.95, 22.13 -2.6 M65.51 29.81 C53.14 19.95, 44.51 11.44, 28.53 -2.34 M65.51 29.81 C51.44 16.8, 36.91 6.28, 28.53 -2.34 M71.91 30.07 C60.54 22.09, 51.93 13.29, 34.17 -2.73 M71.91 30.07 C57.01 17.54, 42.3 3.76, 34.17 -2.73 M77.55 29.68 C65.72 19.95, 55.71 11.84, 40.57 -2.47 M77.55 29.68 C67.92 19.67, 56.78 11.62, 40.57 -2.47 M81.69 27.97 C73.42 18.47, 63.42 11.69, 46.97 -2.21 M81.69 27.97 C71.35 19.65, 62.52 11.73, 46.97 -2.21 M86.57 26.92 C74.71 15.28, 59.67 3.01, 52.61 -2.6 M86.57 26.92 C77.44 19.14, 68.89 12.8, 52.61 -2.6 M89.2 23.9 C78.55 15.14, 67.02 6.41, 59.01 -2.34 M89.2 23.9 C77.22 14.5, 66.81 5.44, 59.01 -2.34 M88.8 18.26 C83.79 13.45, 75.88 6.88, 65.41 -2.08 M88.8 18.26 C82.1 11.72, 75.22 4.82, 65.41 -2.08 M89.16 13.27 C81.49 6.01, 75.43 1.97, 71.05 -2.47 M89.16 13.27 C81.74 6.99, 75.55 2.34, 71.05 -2.47 M89.52 8.28 C86.71 5.29, 81.83 3.64, 77.45 -2.21 M89.52 8.28 C84.84 4.33, 80.8 -0.44, 77.45 -2.21" stroke="#fab005" stroke-width="0.5" fill="none"></path><path d="M7.5 0 M7.5 0 C25.16 -1.88, 39.48 1.22, 80.5 0 M7.5 0 C28.85 0.06, 49.79 0.17, 80.5 0 M80.5 0 C85.34 -0.68, 86.05 2.32, 88 7.5 M80.5 0 C84.45 1.15, 86.2 2.54, 88 7.5 M88 7.5 C88.59 12.34, 87.24 19.36, 88 22.5 M88 7.5 C87.81 11.14, 88.07 14.61, 88 22.5 M88 22.5 C89.16 27.78, 83.75 31.21, 80.5 30 M88 22.5 C88.73 29.12, 84.08 32.21, 80.5 30 M80.5 30 C53.05 31.95, 26.24 29.3, 7.5 30 M80.5 30 C58.02 30.22, 37.63 29.52, 7.5 30 M7.5 30 C3.88 28.16, -1.84 27.73, 0 22.5 M7.5 30 C4.06 31.28, -0.97 26.32, 0 22.5 M0 22.5 C0.37 19.11, 0.03 15.1, 0 7.5 M0 22.5 C0.56 18.85, 0.5 14.84, 0 7.5 M0 7.5 C1.65 2.32, 1.99 -0.96, 7.5 0 M0 7.5 C2.04 1.74, 3.87 1.44, 7.5 0" stroke="#000000" stroke-width="1" fill="none"></path></g><g transform="translate(648.6603515625 121.59375) rotate(0.15565151020811396 37.70397186279297 10)"><text x="0" y="0" font-family="Virgil, Segoe UI Emoji" font-size="16px" fill="#000000" text-anchor="start" style="white-space: pre;" direction="ltr" dominant-baseline="text-before-edge">MAILGUN</text></g><g stroke-linecap="round"><g transform="translate(529.2228515625 78.46484375) rotate(0 46.30675021559 -6.624015130102634)"><path d="M-0.98 0.15 C14.55 -1.97, 77.53 -11.16, 93.59 -13.4" stroke="#000000" stroke-width="1.5" fill="none" stroke-dasharray="8 9"></path></g><g transform="translate(529.2228515625 78.46484375) rotate(0 46.30675021559 -6.624015130102634)"><path d="M67.38 -0.53 C77.39 -2.06, 86.54 -8.5, 94.82 -15.14" stroke="#000000" stroke-width="1.5" fill="none"></path></g><g transform="translate(529.2228515625 78.46484375) rotate(0 46.30675021559 -6.624015130102634)"><path d="M64.48 -20.85 C75.35 -15.49, 85.48 -15.06, 94.82 -15.14" stroke="#000000" stroke-width="1.5" fill="none"></path></g></g><mask></mask><g stroke-linecap="round"><g transform="translate(527.4572265625 89.15625) rotate(0 55.7311113968492 22.43917480558156)"><path d="M-0.17 -0.29 C18.46 7.04, 93.03 37.92, 111.63 45.17" stroke="#000000" stroke-width="1.5" fill="none" stroke-dasharray="8 9"></path></g><g transform="translate(527.4572265625 89.15625) rotate(0 55.7311113968492 22.43917480558156)"><path d="M81.16 44.36 C91.58 44.41, 97.02 45.16, 110.71 46.46" stroke="#000000" stroke-width="1.5" fill="none"></path></g><g transform="translate(527.4572265625 89.15625) rotate(0 55.7311113968492 22.43917480558156)"><path d="M88.84 25.33 C97.23 30.87, 100.44 37.14, 110.71 46.46" stroke="#000000" stroke-width="1.5" fill="none"></path></g></g><mask></mask></svg>